<?xml version="1.0" encoding="utf-8"?>
<!-- Generator: Adobe Illustrator 15.1.0, SVG Export Plug-In . SVG Version: 6.00 Build 0)  -->
<!DOCTYPE svg PUBLIC "-//W3C//DTD SVG 1.1//EN" "http://www.w3.org/Graphics/SVG/1.1/DTD/svg11.dtd">
<svg version="1.1" id="Layer_1" xmlns="http://www.w3.org/2000/svg" xmlns:xlink="http://www.w3.org/1999/xlink" x="0px" y="0px"
	 width="1200px" height="120px" viewBox="-325 13.5 1200 120" enable-background="new -325 13.5 1200 120" xml:space="preserve">
<g>
	<rect x="-325" y="13.5" width="120" height="120"/>
	<g>
		<path fill="#FFFFFF" d="M-226.287,40.698c3.354-0.043,5.914,0.621,8.573,1.083c0,0.017,0,0.031,0,0.046
			c-14.588-0.502-21.761,6.899-24.636,18.363c-1.466,5.847-1.516,12.208-2.571,18.499c-0.165,2.076-0.33,4.152-0.497,6.226
			c-0.119,2.708-0.24,5.418-0.359,8.125c-0.016,0-0.03,0-0.046,0c-0.008-4.401-0.184-8.938-0.045-13.357
			c0.061-2.451,0.119-4.903,0.181-7.354c0.374-2.453,0.042-4.949,0.405-7.265c0.71-4.521,0.59-8.95,2.031-12.634
			c0.869-2.226,2.157-3.858,3.52-5.549c1.349-1.675,3.552-3.609,5.774-4.332c0-0.016,0-0.03,0-0.047
			c-11.765,0.849-17.938,8.287-20.484,18.41c-1.47,5.846-1.506,12.208-2.571,18.5c-0.165,2.074-0.332,4.149-0.496,6.226
			c-0.12,2.707-0.24,5.414-0.36,8.121c-0.015,0-0.03,0-0.046,0c-0.009-4.402-0.185-8.938-0.045-13.355
			c0.06-2.451,0.12-4.902,0.182-7.354c0.372-2.453,0.042-4.949,0.405-7.265c0.707-4.522,0.589-8.95,2.029-12.633
			c0.871-2.226,2.157-3.858,3.521-5.55c1.161-1.442,3.512-3.532,5.413-4.151c0-0.015,0-0.03,0-0.046
			c-11.764,0.849-17.939,8.288-20.484,18.411c-1.47,5.845-1.507,12.209-2.572,18.499c-0.164,2.074-0.33,4.151-0.496,6.228
			c-0.119,2.707-0.24,5.414-0.36,8.12c-0.014,0-0.029,0-0.045,0c-0.029-3.639-0.059-7.28-0.09-10.919
			c0.031-1.699,0.061-3.398,0.09-5.098c0.045-1.562,0.09-3.13,0.135-4.694c0.016-0.705,0.03-1.413,0.046-2.12
			c0.151-2.075,0.301-4.15,0.452-6.226c0.731-4.501,0.675-8.605,2.21-12.228c1.081-2.553,2.927-5.009,4.964-6.633
			c0.767-0.557,1.534-1.113,2.302-1.67c-4.037,0.187-7.603,1.981-10.153,3.79c-3.74,2.653-6.236,6.224-8.031,10.83
			c-2.467,6.328-2.38,14.626-3.655,22.154c-0.166,2.074-0.331,4.151-0.496,6.226c-0.12,2.707-0.24,5.416-0.361,8.123
			c-0.016,0-0.029,0-0.044,0c-0.03-3.053-0.061-6.107-0.091-9.162c0.015-1.321,0.03-2.646,0.046-3.97
			c0.045-2.104,0.089-4.21,0.136-6.315c0.059-1.715,0.118-3.43,0.18-5.144c0.09-1.324,0.182-2.647,0.271-3.971
			c0.825-5.09,0.776-10.346,2.933-14.033c2.962-5.068,7.152-8.278,13.943-9.566c1.344-0.254,3.261-0.364,4.735-0.135
			c0.783,0.09,1.564,0.181,2.346,0.271c0.542-0.24,1.085-0.481,1.626-0.721c1.194-0.464,2.555-0.688,3.926-0.949
			c1.684-0.318,4.036-0.329,5.773-0.044c0.767,0.104,1.535,0.21,2.302,0.315c0.632-0.226,1.265-0.449,1.896-0.677
			c1.18-0.352,2.467-0.422,3.79-0.631c2.354-0.374,4.677,0.355,6.633,0.451c0.51,0.024,2.539-0.739,3.293-0.902
			C-228.271,40.909-227.279,40.804-226.287,40.698z"/>
		<path fill="#FFFFFF" d="M-231.745,91.865c2.965-0.051,9.612,0.86,10.918,2.213c-0.016,0.072-0.029,0.147-0.045,0.223
			c-0.571,1.272-4.985,2.058-6.677,2.481c-3.957,0.992-8.28,1.212-12.68,1.941c-1.609,0.074-3.218,0.149-4.827,0.225
			c-1.657,0.263-6.981,0.083-8.122-0.405c6.543-0.745,13.185-1.001,19.086-2.394c1.523-0.355,5.384-0.881,5.414-2.481
			C-229.212,92.433-230.625,92.525-231.745,91.865z"/>
		<path fill="#FFFFFF" d="M-291.259,94.528c0.166,0.015,0.33,0.029,0.496,0.044c-2.691,0.144-5.72,0.965-7.715,1.986
			c-0.562,0.287-1.877,0.841-1.445,1.894c0.52,1.273,2.714,1.875,4.061,2.348c4.229,1.483,9.192,1.762,14.259,2.571
			c4.012,0.642,8.147,0.218,12.452,0.587c2.167,0,4.333,0,6.498,0c2.377-0.06,4.752-0.121,7.128-0.18
			c1.761-0.106,3.521-0.212,5.28-0.316c4.322-0.683,8.714-0.569,12.86-1.354c4.011-0.759,7.979-1.184,11.82-2.074
			c0.875-0.204,3.851-1.058,4.737-0.724c-0.03,0.016-0.061,0.03-0.089,0.044c-0.986,0.697-3.268,0.93-4.603,1.265
			c-3.505,0.883-7.169,1.364-10.875,2.167c-5.066,1.097-10.498,1.382-15.837,2.3c-1.85,0.18-3.699,0.36-5.55,0.541
			c-3.023,0.182-6.046,0.36-9.068,0.541c-1.579,0.047-3.158,0.09-4.738,0.136c-1.535,0-3.068,0-4.603,0
			c-1.082-0.017-2.164-0.03-3.248-0.046c-2.522-0.395-5.194-0.179-7.58-0.586c-1.488-0.182-2.977-0.359-4.467-0.541
			c-4.081-0.811-7.923-1.609-11.235-3.066c-1.039-0.46-3.767-1.702-3.338-3.432c0.735-2.981,7.769-3.358,11.323-3.927
			C-293.574,94.648-292.416,94.588-291.259,94.528z"/>
	</g>
</g>
<text transform="matrix(1 0 0 1 -170.3306 94.5283)" font-family="'Gotham-Light'" font-size="72" letter-spacing="-1">Kingwood Church</text>
</svg>
