<?xml version="1.0" encoding="utf-8"?>
<!-- Generator: Adobe Illustrator 15.1.0, SVG Export Plug-In . SVG Version: 6.00 Build 0)  -->
<!DOCTYPE svg PUBLIC "-//W3C//DTD SVG 1.1//EN" "http://www.w3.org/Graphics/SVG/1.1/DTD/svg11.dtd">
<svg version="1.1" id="Layer_1" xmlns="http://www.w3.org/2000/svg" xmlns:xlink="http://www.w3.org/1999/xlink" x="0px" y="0px"
	 width="550px" height="147px" viewBox="0 0 550 147" enable-background="new 0 0 550 147" xml:space="preserve">
<g>
	<rect x="5.564" width="147" height="147"/>
	<g>
		<path fill-rule="evenodd" clip-rule="evenodd" fill="#FFFFFF" d="M126.488,33.318c4.109-0.053,7.245,0.761,10.502,1.326
			c0,0.02,0,0.038,0,0.056c-17.871-0.615-26.657,8.453-30.179,22.496c-1.796,7.161-1.857,14.954-3.151,22.662
			c-0.201,2.543-0.404,5.086-0.607,7.627c-0.146,3.316-0.295,6.634-0.441,9.95c-0.019,0-0.037,0-0.056,0
			c-0.01-5.392-0.226-10.948-0.055-16.361c0.073-3.003,0.146-6.007,0.221-9.009c0.458-3.004,0.052-6.062,0.497-8.899
			c0.869-5.539,0.722-10.963,2.487-15.476c1.066-2.726,2.642-4.726,4.312-6.798c1.652-2.052,4.351-4.421,7.075-5.307
			c0-0.018,0-0.036,0-0.056C102.68,36.567,95.116,45.681,91.998,58.08c-1.8,7.161-1.845,14.956-3.149,22.662
			c-0.202,2.542-0.406,5.085-0.608,7.627c-0.147,3.316-0.295,6.633-0.442,9.949c-0.019,0-0.037,0-0.056,0
			c-0.01-5.391-0.225-10.948-0.055-16.36c0.073-3.003,0.147-6.007,0.221-9.01c0.457-3.004,0.054-6.062,0.498-8.899
			c0.866-5.539,0.722-10.964,2.486-15.476c1.066-2.725,2.643-4.726,4.312-6.798c1.422-1.766,4.303-4.328,6.632-5.085
			c0-0.018,0-0.037,0-0.055c-14.411,1.039-21.976,10.152-25.094,22.552c-1.8,7.16-1.845,14.956-3.15,22.662
			c-0.202,2.542-0.405,5.085-0.608,7.627c-0.146,3.317-0.294,6.633-0.442,9.949c-0.018,0-0.036,0-0.055,0
			c-0.036-4.457-0.073-8.918-0.109-13.376c0.036-2.081,0.073-4.164,0.109-6.245c0.055-1.916,0.11-3.833,0.166-5.749
			c0.019-0.866,0.037-1.732,0.056-2.598c0.184-2.542,0.368-5.085,0.553-7.627c0.896-5.514,0.828-10.542,2.707-14.979
			c1.325-3.126,3.584-6.136,6.081-8.125c0.939-0.682,1.879-1.363,2.819-2.045c-4.945,0.228-9.313,2.427-12.437,4.643
			c-4.582,3.249-7.64,7.623-9.839,13.266c-3.021,7.752-2.915,17.917-4.478,27.138c-0.202,2.543-0.405,5.086-0.607,7.627
			c-0.147,3.316-0.294,6.634-0.442,9.95c-0.019,0-0.037,0-0.055,0c-0.037-3.739-0.074-7.481-0.111-11.222
			c0.019-1.62,0.037-3.242,0.056-4.863c0.056-2.579,0.11-5.158,0.166-7.738c0.073-2.1,0.147-4.201,0.221-6.3
			c0.111-1.622,0.222-3.243,0.332-4.864c1.011-6.235,0.952-12.673,3.593-17.19c3.629-6.209,8.762-10.141,17.079-11.718
			c1.647-0.313,3.996-0.448,5.804-0.167c0.958,0.111,1.916,0.222,2.873,0.332c0.664-0.294,1.328-0.589,1.99-0.884
			c1.464-0.568,3.13-0.842,4.81-1.161c2.063-0.391,4.945-0.405,7.073-0.055c0.94,0.129,1.881,0.258,2.82,0.387
			c0.773-0.276,1.548-0.552,2.321-0.829c1.446-0.431,3.022-0.517,4.643-0.773c2.883-0.458,5.729,0.435,8.125,0.553
			c0.624,0.03,3.11-0.906,4.035-1.106C124.057,33.576,125.272,33.447,126.488,33.318z"/>
		<path fill-rule="evenodd" clip-rule="evenodd" fill="#FFFFFF" d="M119.801,95.997c3.632-0.063,11.776,1.054,13.376,2.709
			c-0.019,0.091-0.037,0.183-0.056,0.275c-0.7,1.56-6.107,2.521-8.18,3.041c-4.846,1.214-10.143,1.483-15.532,2.376
			c-1.972,0.092-3.942,0.185-5.914,0.277c-2.029,0.32-8.551,0.101-9.948-0.498c8.014-0.914,16.151-1.225,23.379-2.93
			c1.866-0.439,6.596-1.08,6.633-3.041C122.904,96.691,121.173,96.804,119.801,95.997z"/>
		<path fill-rule="evenodd" clip-rule="evenodd" fill="#FFFFFF" d="M46.896,99.258c0.203,0.019,0.405,0.037,0.608,0.056
			c-3.297,0.175-7.005,1.181-9.451,2.433c-0.688,0.351-2.298,1.028-1.77,2.32c0.637,1.559,3.325,2.296,4.975,2.875
			c5.18,1.818,11.26,2.157,17.466,3.15c4.915,0.786,9.981,0.268,15.255,0.719c2.653,0,5.308,0,7.96,0
			c2.911-0.074,5.821-0.147,8.732-0.221c2.156-0.129,4.312-0.259,6.467-0.387c5.296-0.836,10.675-0.697,15.753-1.658
			c4.914-0.932,9.776-1.452,14.481-2.543c1.074-0.25,4.718-1.295,5.804-0.885c-0.037,0.019-0.074,0.037-0.11,0.055
			c-1.207,0.854-4.001,1.137-5.638,1.548c-4.293,1.08-8.782,1.671-13.321,2.653c-6.206,1.344-12.861,1.694-19.4,2.818
			c-2.266,0.222-4.532,0.442-6.799,0.664c-3.703,0.221-7.406,0.441-11.109,0.662c-1.934,0.057-3.869,0.111-5.804,0.167
			c-1.88,0-3.758,0-5.638,0c-1.326-0.019-2.652-0.037-3.979-0.056c-3.09-0.484-6.363-0.221-9.286-0.719
			c-1.823-0.221-3.647-0.441-5.472-0.663c-4.999-0.993-9.704-1.97-13.763-3.758c-1.273-0.562-4.614-2.083-4.09-4.201
			c0.903-3.652,9.517-4.116,13.873-4.81C44.06,99.406,45.478,99.332,46.896,99.258z"/>
	</g>
	<text transform="matrix(1 0 0 1 172.0029 60.2764)"><tspan x="0" y="0" font-family="'Gotham-Light'" font-size="64.9589" letter-spacing="-1">Kingwood</tspan><tspan x="0" y="64.959" font-family="'Gotham-Light'" font-size="64.9589" letter-spacing="-1">Church</tspan></text>
</g>
</svg>
