<?xml version="1.0" encoding="utf-8"?>
<!-- Generator: Adobe Illustrator 15.1.0, SVG Export Plug-In . SVG Version: 6.00 Build 0)  -->
<!DOCTYPE svg PUBLIC "-//W3C//DTD SVG 1.1//EN" "http://www.w3.org/Graphics/SVG/1.1/DTD/svg11.dtd">
<svg version="1.1" id="Layer_1" xmlns="http://www.w3.org/2000/svg" xmlns:xlink="http://www.w3.org/1999/xlink" x="0px" y="0px"
	 width="460px" height="400px" viewBox="0 0 460 400" enable-background="new 0 0 460 400" xml:space="preserve">
<g>
	<g>
		<g>
			<rect x="131.838" y="22.51" width="196.324" height="196.324"/>
			<g>
				<path fill="#FFFFFF" d="M293.336,67.007c5.486-0.07,9.676,1.017,14.025,1.772c0,0.027,0,0.051,0,0.075
					c-23.866-0.821-35.601,11.288-40.305,30.043c-2.398,9.565-2.479,19.973-4.207,30.265c-0.27,3.396-0.539,6.793-0.812,10.185
					c-0.195,4.431-0.394,8.864-0.588,13.293c-0.025,0-0.05,0-0.075,0c-0.013-7.201-0.301-14.624-0.073-21.853
					c0.099-4.01,0.194-8.022,0.295-12.031c0.612-4.014,0.069-8.097,0.663-11.885c1.162-7.397,0.965-14.643,3.323-20.669
					c1.422-3.641,3.529-6.312,5.758-9.078c2.207-2.74,5.812-5.905,9.447-7.087c0-0.025,0-0.049,0-0.077
					c-19.247,1.389-29.348,13.558-33.513,30.12c-2.405,9.564-2.464,19.973-4.207,30.267c-0.271,3.394-0.543,6.789-0.812,10.186
					c-0.196,4.429-0.393,8.857-0.59,13.286c-0.023,0-0.049,0-0.074,0c-0.016-7.202-0.303-14.622-0.074-21.85
					c0.098-4.01,0.197-8.021,0.297-12.032c0.609-4.014,0.069-8.097,0.664-11.885c1.156-7.399,0.963-14.643,3.319-20.668
					c1.425-3.641,3.529-6.312,5.76-9.08c1.899-2.36,5.745-5.779,8.856-6.792c0-0.024,0-0.049,0-0.075
					c-19.246,1.388-29.35,13.56-33.514,30.121c-2.404,9.562-2.465,19.974-4.208,30.265c-0.269,3.394-0.54,6.792-0.812,10.188
					c-0.195,4.429-0.393,8.857-0.589,13.285c-0.022,0-0.048,0-0.074,0c-0.048-5.953-0.096-11.911-0.147-17.864
					c0.051-2.78,0.099-5.56,0.147-8.34c0.074-2.557,0.147-5.121,0.221-7.68c0.025-1.153,0.049-2.312,0.075-3.469
					c0.248-3.395,0.492-6.79,0.74-10.185c1.196-7.364,1.104-14.079,3.615-20.005c1.769-4.176,4.789-8.194,8.121-10.852
					c1.255-0.911,2.511-1.821,3.767-2.732c-6.605,0.305-12.438,3.242-16.612,6.201c-6.119,4.341-10.203,10.182-13.14,17.718
					c-4.036,10.353-3.894,23.929-5.98,36.246c-0.271,3.393-0.542,6.792-0.812,10.185c-0.197,4.429-0.393,8.861-0.591,13.29
					c-0.025,0-0.048,0-0.072,0c-0.05-4.994-0.099-9.992-0.148-14.99c0.024-2.162,0.049-4.328,0.075-6.495
					c0.074-3.443,0.146-6.887,0.222-10.332c0.096-2.806,0.193-5.611,0.294-8.415c0.147-2.167,0.297-4.332,0.444-6.496
					c1.35-8.327,1.27-16.926,4.798-22.959c4.846-8.292,11.701-13.543,22.812-15.651c2.198-0.416,5.335-0.596,7.747-0.221
					c1.281,0.147,2.561,0.296,3.838,0.443c0.887-0.393,1.775-0.788,2.66-1.179c1.954-0.759,4.18-1.126,6.423-1.553
					c2.755-0.521,6.604-0.538,9.445-0.072c1.255,0.171,2.512,0.344,3.766,0.516c1.034-0.369,2.069-0.735,3.102-1.107
					c1.93-0.575,4.036-0.69,6.2-1.032c3.851-0.612,7.651,0.582,10.852,0.738c0.834,0.04,4.154-1.209,5.388-1.476
					C290.089,67.352,291.713,67.18,293.336,67.007z"/>
				<path fill="#FFFFFF" d="M284.406,150.718c4.851-0.083,15.726,1.407,17.862,3.62c-0.025,0.118-0.048,0.241-0.073,0.364
					c-0.936,2.082-8.156,3.366-10.924,4.06c-6.474,1.624-13.547,1.983-20.744,3.176c-2.634,0.122-5.265,0.245-7.897,0.368
					c-2.712,0.43-11.422,0.136-13.288-0.663c10.704-1.219,21.57-1.638,31.225-3.916c2.493-0.582,8.809-1.441,8.858-4.06
					C288.551,151.646,286.238,151.798,284.406,150.718z"/>
				<path fill="#FFFFFF" d="M187.04,155.075c0.272,0.024,0.54,0.048,0.812,0.072c-4.403,0.235-9.358,1.579-12.622,3.25
					c-0.92,0.47-3.071,1.375-2.364,3.098c0.85,2.083,4.439,3.067,6.643,3.841c6.918,2.427,15.039,2.882,23.328,4.207
					c6.563,1.05,13.33,0.356,20.372,0.96c3.545,0,7.089,0,10.632,0c3.889-0.098,7.773-0.198,11.661-0.294
					c2.88-0.174,5.76-0.347,8.639-0.518c7.071-1.117,14.256-0.931,21.04-2.216c6.562-1.241,13.053-1.937,19.338-3.394
					c1.432-0.334,6.3-1.73,7.751-1.184c-0.05,0.025-0.1,0.049-0.146,0.072c-1.613,1.141-5.346,1.521-7.53,2.069
					c-5.733,1.444-11.729,2.232-17.792,3.545c-8.288,1.794-17.175,2.261-25.909,3.763c-3.026,0.294-6.052,0.589-9.08,0.885
					c-4.946,0.297-9.892,0.59-14.836,0.885c-2.583,0.077-5.167,0.147-7.752,0.222c-2.512,0-5.02,0-7.53,0
					c-1.771-0.027-3.541-0.05-5.314-0.075c-4.127-0.646-8.498-0.292-12.401-0.958c-2.435-0.297-4.87-0.588-7.308-0.885
					c-6.677-1.326-12.962-2.633-18.381-5.017c-1.7-0.752-6.162-2.785-5.461-5.614c1.203-4.878,12.71-5.495,18.525-6.424
					C183.251,155.271,185.146,155.172,187.04,155.075z"/>
			</g>
		</g>
	</g>
	<g>
		<g enable-background="new    ">
			<path d="M20.66,249.151h3.744v33.123l32.115-33.123h5.112l-22.034,22.25l22.97,28.154h-4.896l-20.738-25.49l-12.529,12.673
				v12.817H20.66V249.151z"/>
			<path d="M71.564,249.151h3.744v50.404h-3.744V249.151z"/>
			<path d="M89.707,249.151h3.528l34.779,43.852v-43.852h3.601v50.404h-2.809l-35.499-44.788v44.788h-3.6V249.151z"/>
			<path d="M143.274,274.497v-0.144c0-13.609,9.865-26.066,24.914-26.066c8.209,0,13.394,2.448,18.434,6.625l-2.448,2.808
				c-3.96-3.456-8.568-6.048-16.201-6.048c-12.241,0-20.81,10.368-20.81,22.538v0.144c0,13.033,8.137,22.754,21.602,22.754
				c6.409,0,12.385-2.664,16.058-5.761v-14.473h-16.85v-3.457h20.45v19.442c-4.536,4.032-11.593,7.561-19.802,7.561
				C152.707,300.42,143.274,288.683,143.274,274.497z"/>
			<path d="M195.906,249.151h4.177l15.841,44.859l14.761-45.004h2.88l14.761,45.004l15.842-44.859h3.888l-18.289,50.765h-3.024
				l-14.762-43.78l-14.761,43.78h-3.024L195.906,249.151z"/>
			<path d="M273.306,274.497v-0.144c0-13.753,10.153-26.066,25.419-26.066c15.265,0,25.273,12.169,25.273,25.923v0.144
				c0,13.753-10.152,26.066-25.417,26.066C283.315,300.42,273.306,288.251,273.306,274.497z M320.11,274.497v-0.144
				c0-12.457-9.072-22.682-21.529-22.682s-21.387,10.08-21.387,22.538v0.144c0,12.457,9.073,22.682,21.53,22.682
				S320.11,286.954,320.11,274.497z"/>
			<path d="M333.426,274.497v-0.144c0-13.753,10.152-26.066,25.418-26.066s25.273,12.169,25.273,25.923v0.144
				c0,13.753-10.152,26.066-25.418,26.066S333.426,288.251,333.426,274.497z M380.229,274.497v-0.144
				c0-12.457-9.073-22.682-21.53-22.682s-21.385,10.08-21.385,22.538v0.144c0,12.457,9.072,22.682,21.529,22.682
				S380.229,286.954,380.229,274.497z"/>
			<path d="M395.777,249.151h16.777c15.842,0,26.785,10.873,26.785,25.059v0.144c0,14.186-10.943,25.202-26.785,25.202h-16.777
				V249.151z M399.521,252.607V296.1h13.033c14.041,0,22.898-9.577,22.898-21.603v-0.144c0-11.953-8.857-21.746-22.898-21.746
				H399.521z"/>
		</g>
		<g>
			<path d="M77.827,351.567v-0.144c0-14.257,10.656-26.066,25.203-26.066c9,0,14.4,3.312,19.584,8.064l-2.664,2.736
				c-4.393-4.248-9.432-7.416-16.992-7.416c-12.098,0-21.242,9.864-21.242,22.538v0.144c0,12.745,9.289,22.682,21.314,22.682
				c7.271,0,12.24-2.808,17.354-7.849l2.52,2.448c-5.328,5.257-11.09,8.785-20.018,8.785
				C88.483,377.49,77.827,366.041,77.827,351.567z"/>
			<path d="M132.114,326.222h3.746v23.33h32.258v-23.33h3.744v50.404h-3.744v-23.618H135.86v23.618h-3.746V326.222z"/>
			<path d="M184.962,355.672v-29.45h3.744v29.091c0,11.881,6.41,18.722,17.066,18.722c10.225,0,16.777-6.193,16.777-18.362v-29.45
				h3.744v29.019c0,14.474-8.424,22.178-20.666,22.178C193.532,377.418,184.962,369.785,184.962,355.672z"/>
			<path d="M239.394,326.222h21.17c6.193,0,11.162,1.944,14.186,4.969c2.377,2.376,3.816,5.76,3.816,9.36v0.145
				c0,8.424-6.264,13.249-14.762,14.4l16.635,21.53h-4.752l-16.059-20.882H243.14v20.882h-3.746V326.222z M260.132,352.36
				c8.426,0,14.689-4.249,14.689-11.521v-0.144c0-6.769-5.328-11.018-14.473-11.018H243.14v22.683H260.132z"/>
			<path d="M288.138,351.567v-0.144c0-14.257,10.656-26.066,25.203-26.066c9,0,14.4,3.312,19.584,8.064l-2.664,2.736
				c-4.393-4.248-9.432-7.416-16.992-7.416c-12.098,0-21.242,9.864-21.242,22.538v0.144c0,12.745,9.289,22.682,21.314,22.682
				c7.271,0,12.24-2.808,17.354-7.849l2.52,2.448c-5.328,5.257-11.09,8.785-20.018,8.785
				C298.794,377.49,288.138,366.041,288.138,351.567z"/>
			<path d="M342.425,326.222h3.746v23.33h32.258v-23.33h3.744v50.404h-3.744v-23.618h-32.258v23.618h-3.746V326.222z"/>
		</g>
	</g>
</g>
</svg>
