<?xml version="1.0" encoding="utf-8"?>
<!-- Generator: Adobe Illustrator 15.1.0, SVG Export Plug-In . SVG Version: 6.00 Build 0)  -->
<!DOCTYPE svg PUBLIC "-//W3C//DTD SVG 1.1//EN" "http://www.w3.org/Graphics/SVG/1.1/DTD/svg11.dtd">
<svg version="1.1" id="Layer_1" xmlns="http://www.w3.org/2000/svg" xmlns:xlink="http://www.w3.org/1999/xlink" x="0px" y="0px"
	 width="940px" height="120px" viewBox="0 0 940 120" enable-background="new 0 0 940 120" xml:space="preserve">
<g>
	<g>
		<rect width="120" height="120"/>
		<g>
			<path fill="currentColor" d="M98.713,27.198c3.354-0.043,5.914,0.621,8.573,1.083c0,0.017,0,0.031,0,0.046
				C92.698,27.825,85.525,35.227,82.65,46.69c-1.466,5.847-1.516,12.208-2.571,18.499c-0.165,2.076-0.33,4.152-0.497,6.226
				c-0.119,2.708-0.24,5.418-0.359,8.125c-0.016,0-0.03,0-0.046,0c-0.008-4.401-0.184-8.938-0.045-13.357
				c0.061-2.451,0.119-4.903,0.181-7.354c0.374-2.453,0.042-4.949,0.405-7.265c0.71-4.521,0.59-8.95,2.031-12.634
				c0.869-2.226,2.157-3.858,3.52-5.549c1.349-1.675,3.552-3.609,5.774-4.332c0-0.016,0-0.03,0-0.047
				c-11.765,0.849-17.938,8.287-20.484,18.41c-1.47,5.846-1.506,12.208-2.571,18.5c-0.165,2.074-0.332,4.149-0.496,6.226
				c-0.12,2.707-0.24,5.414-0.36,8.121c-0.015,0-0.03,0-0.046,0c-0.009-4.402-0.185-8.938-0.045-13.355
				c0.06-2.451,0.12-4.902,0.182-7.354c0.372-2.453,0.042-4.949,0.405-7.265c0.707-4.522,0.589-8.95,2.029-12.633
				c0.871-2.226,2.157-3.858,3.521-5.55c1.161-1.442,3.512-3.532,5.413-4.151c0-0.015,0-0.03,0-0.046
				c-11.764,0.849-17.939,8.288-20.484,18.411c-1.47,5.845-1.507,12.209-2.572,18.499c-0.164,2.074-0.33,4.151-0.496,6.228
				c-0.119,2.707-0.24,5.414-0.36,8.12c-0.014,0-0.029,0-0.045,0c-0.029-3.639-0.059-7.28-0.09-10.919
				c0.031-1.699,0.061-3.398,0.09-5.098c0.045-1.562,0.09-3.13,0.135-4.694c0.016-0.705,0.03-1.413,0.046-2.12
				c0.151-2.075,0.301-4.15,0.452-6.226c0.731-4.501,0.675-8.605,2.21-12.228c1.081-2.553,2.927-5.009,4.964-6.633
				c0.767-0.557,1.534-1.113,2.302-1.67c-4.037,0.187-7.603,1.981-10.153,3.79c-3.74,2.653-6.236,6.224-8.031,10.83
				c-2.467,6.328-2.38,14.626-3.655,22.154c-0.166,2.074-0.331,4.151-0.496,6.226c-0.12,2.707-0.24,5.416-0.361,8.123
				c-0.016,0-0.029,0-0.044,0c-0.03-3.053-0.061-6.107-0.091-9.162c0.015-1.321,0.03-2.646,0.046-3.97
				c0.045-2.104,0.089-4.21,0.136-6.315c0.059-1.715,0.118-3.43,0.18-5.144c0.09-1.324,0.182-2.647,0.271-3.971
				c0.825-5.09,0.776-10.346,2.933-14.033c2.962-5.068,7.152-8.278,13.943-9.566c1.344-0.254,3.261-0.364,4.735-0.135
				c0.783,0.09,1.564,0.181,2.346,0.271c0.542-0.24,1.085-0.481,1.626-0.721c1.194-0.464,2.555-0.688,3.926-0.949
				c1.684-0.318,4.036-0.329,5.773-0.044c0.767,0.104,1.535,0.21,2.302,0.315c0.632-0.226,1.265-0.449,1.896-0.677
				c1.18-0.352,2.467-0.422,3.79-0.631c2.354-0.374,4.677,0.355,6.633,0.451c0.51,0.024,2.539-0.739,3.293-0.902
				C96.729,27.409,97.721,27.304,98.713,27.198z"/>
			<path fill="currentColor" d="M93.255,78.365c2.965-0.051,9.612,0.86,10.918,2.213c-0.016,0.072-0.029,0.147-0.045,0.223
				c-0.571,1.272-4.985,2.058-6.677,2.481c-3.957,0.992-8.28,1.212-12.68,1.941c-1.609,0.074-3.218,0.149-4.827,0.225
				c-1.657,0.263-6.981,0.083-8.122-0.405c6.543-0.745,13.185-1.001,19.086-2.394c1.523-0.355,5.384-0.881,5.414-2.481
				C95.788,78.933,94.375,79.025,93.255,78.365z"/>
			<path fill="currentColor" d="M33.741,81.028c0.166,0.015,0.33,0.029,0.496,0.044c-2.691,0.144-5.72,0.965-7.715,1.986
				c-0.562,0.287-1.877,0.841-1.445,1.894c0.52,1.273,2.714,1.875,4.061,2.348c4.229,1.483,9.192,1.762,14.259,2.571
				c4.012,0.642,8.147,0.218,12.452,0.587c2.167,0,4.333,0,6.498,0c2.377-0.06,4.752-0.121,7.128-0.18
				c1.761-0.106,3.521-0.212,5.28-0.316c4.322-0.683,8.714-0.569,12.86-1.354c4.011-0.759,7.979-1.184,11.82-2.074
				c0.875-0.204,3.851-1.058,4.737-0.724c-0.03,0.016-0.061,0.03-0.089,0.044c-0.986,0.697-3.268,0.93-4.603,1.265
				c-3.505,0.883-7.169,1.364-10.875,2.167c-5.066,1.097-10.498,1.382-15.837,2.3c-1.85,0.18-3.699,0.36-5.55,0.541
				c-3.023,0.182-6.046,0.36-9.068,0.541c-1.579,0.047-3.158,0.09-4.738,0.136c-1.535,0-3.068,0-4.603,0
				c-1.082-0.017-2.164-0.03-3.248-0.046c-2.522-0.395-5.194-0.179-7.58-0.586c-1.488-0.182-2.977-0.359-4.467-0.541
				c-4.081-0.811-7.923-1.609-11.235-3.066c-1.039-0.46-3.767-1.702-3.338-3.432c0.735-2.981,7.769-3.358,11.323-3.927
				C31.426,81.148,32.584,81.088,33.741,81.028z"/>
		</g>
	</g>
	<g enable-background="new    ">
		<path d="M152.158,30.624h3.744v33.123l32.115-33.123h5.112l-22.034,22.25l22.97,28.154h-4.896l-20.738-25.49l-12.529,12.673
			v12.817h-3.744V30.624z"/>
		<path d="M203.062,30.624h3.744v50.404h-3.744V30.624z"/>
		<path d="M221.205,30.624h3.528l34.779,43.852V30.624h3.601v50.404h-2.809L224.805,36.24v44.788h-3.6V30.624z"/>
		<path d="M274.772,55.97v-0.144c0-13.609,9.865-26.066,24.914-26.066c8.209,0,13.394,2.448,18.434,6.625l-2.448,2.808
			c-3.96-3.456-8.568-6.048-16.201-6.048c-12.241,0-20.81,10.368-20.81,22.538v0.144c0,13.033,8.137,22.754,21.602,22.754
			c6.409,0,12.385-2.664,16.058-5.761V58.347h-16.85V54.89h20.45v19.442c-4.536,4.032-11.593,7.561-19.802,7.561
			C284.205,81.893,274.772,70.155,274.772,55.97z"/>
		<path d="M327.404,30.624h4.177l15.841,44.859l14.761-45.004h2.88l14.761,45.004l15.841-44.859h3.888l-18.29,50.765h-3.024
			l-14.761-43.78l-14.761,43.78h-3.024L327.404,30.624z"/>
		<path d="M404.804,55.97v-0.144c0-13.753,10.153-26.066,25.418-26.066c15.265,0,25.274,12.169,25.274,25.923v0.144
			c0,13.753-10.153,26.066-25.418,26.066C414.813,81.893,404.804,69.724,404.804,55.97z M451.608,55.97v-0.144
			c0-12.457-9.073-22.682-21.53-22.682s-21.386,10.08-21.386,22.538v0.144c0,12.457,9.073,22.682,21.53,22.682
			S451.608,68.427,451.608,55.97z"/>
		<path d="M464.923,55.97v-0.144c0-13.753,10.153-26.066,25.418-26.066s25.273,12.169,25.273,25.923v0.144
			c0,13.753-10.152,26.066-25.418,26.066S464.923,69.724,464.923,55.97z M511.728,55.97v-0.144c0-12.457-9.073-22.682-21.53-22.682
			s-21.385,10.08-21.385,22.538v0.144c0,12.457,9.073,22.682,21.53,22.682S511.728,68.427,511.728,55.97z"/>
		<path d="M527.275,30.624h16.777c15.842,0,26.785,10.873,26.785,25.059v0.144c0,14.186-10.943,25.202-26.785,25.202h-16.777V30.624
			z M531.02,34.08v43.492h13.033c14.041,0,22.898-9.577,22.898-21.603v-0.144c0-11.953-8.857-21.746-22.898-21.746H531.02z"/>
		<path d="M600.785,55.97v-0.144c0-14.257,10.656-26.066,25.203-26.066c9,0,14.4,3.312,19.584,8.064l-2.664,2.736
			c-4.393-4.248-9.432-7.416-16.992-7.416c-12.098,0-21.242,9.864-21.242,22.538v0.144c0,12.745,9.289,22.682,21.314,22.682
			c7.271,0,12.24-2.808,17.354-7.849l2.52,2.448c-5.328,5.257-11.09,8.785-20.018,8.785
			C611.441,81.893,600.785,70.443,600.785,55.97z"/>
		<path d="M655.072,30.624h3.746v23.33h32.258v-23.33h3.744v50.404h-3.744V57.41h-32.258v23.618h-3.746V30.624z"/>
		<path d="M707.92,60.074v-29.45h3.744v29.091c0,11.881,6.41,18.722,17.066,18.722c10.225,0,16.777-6.193,16.777-18.362v-29.45
			h3.744v29.019c0,14.474-8.424,22.178-20.666,22.178C716.49,81.82,707.92,74.188,707.92,60.074z"/>
		<path d="M762.352,30.624h21.17c6.193,0,11.162,1.944,14.186,4.969c2.377,2.376,3.816,5.76,3.816,9.36v0.145
			c0,8.424-6.264,13.249-14.762,14.4l16.635,21.53h-4.752l-16.059-20.882h-16.488v20.882h-3.746V30.624z M783.09,56.763
			c8.426,0,14.689-4.249,14.689-11.521v-0.144c0-6.769-5.328-11.018-14.473-11.018h-17.209v22.683H783.09z"/>
		<path d="M811.096,55.97v-0.144c0-14.257,10.656-26.066,25.203-26.066c9,0,14.4,3.312,19.584,8.064l-2.664,2.736
			c-4.393-4.248-9.432-7.416-16.992-7.416c-12.098,0-21.242,9.864-21.242,22.538v0.144c0,12.745,9.289,22.682,21.314,22.682
			c7.271,0,12.24-2.808,17.354-7.849l2.52,2.448c-5.328,5.257-11.09,8.785-20.018,8.785
			C821.752,81.893,811.096,70.443,811.096,55.97z"/>
		<path d="M865.383,30.624h3.746v23.33h32.258v-23.33h3.744v50.404h-3.744V57.41h-32.258v23.618h-3.746V30.624z"/>
	</g>
</g>
</svg>
