<?xml version="1.0" encoding="utf-8"?>
<!-- Generator: Adobe Illustrator 15.1.0, SVG Export Plug-In . SVG Version: 6.00 Build 0)  -->
<!DOCTYPE svg PUBLIC "-//W3C//DTD SVG 1.1//EN" "http://www.w3.org/Graphics/SVG/1.1/DTD/svg11.dtd">
<svg version="1.1" id="Layer_1" xmlns="http://www.w3.org/2000/svg" xmlns:xlink="http://www.w3.org/1999/xlink" x="0px" y="0px"
	 width="670px" height="200px" viewBox="0 0 670 200" enable-background="new 0 0 670 200" xml:space="preserve">
<g>
	<g>
		<path fill="currentColor" d="M0,0v200h200V0H0z M62.037,102.938c0.243-5.716,0.584-11.43,1.136-17.128c0.558-5.697,1.306-11.39,2.549-16.998
			c1.294-5.575,3.043-11.165,6.229-16.026c1.592-2.415,3.595-4.59,5.978-6.255c2.377-1.677,5.095-2.822,7.891-3.529
			c2.801-0.711,5.677-1.029,8.545-1.146c2.874-0.108,5.729-0.019,8.587-0.026l16.568,0.082c0.775-0.046,1.551-0.078,2.326-0.094
			c2.903-0.034,5.784,0.005,8.677,0.004l16.315,0.049c3.729-0.165,7.219-0.004,10.927-0.049L175,41.873v0.017
			c1-0.011,2-0.017,2-0.017v0.408c-5,0.772-9.35,1.651-13.339,3.633c-4.03,1.885-7.025,4.914-9.153,8.617
			c-2.082,3.742-3.532,7.988-4.511,12.429c-1.062,4.423-1.805,9.003-2.356,13.633c-0.665,4.619-1.089,9.302-1.521,13.998
			c-0.507,4.694-0.793,9.298-1.273,14.027c-0.825,9.465-1.661,19.383-3.098,28.383H141v0.243c0-9.536,0.196-19.076,0.479-28.612
			c0.298-9.533,0.867-19.076,2.049-28.563c0.637-4.734,1.498-9.458,2.731-14.088c1.248-4.611,2.92-9.192,5.591-13.222
			c1.334-2.006,2.954-3.844,4.841-5.356c1.882-1.516,4.034-2.688,6.297-3.513c0.444-0.161,0.896-0.3,1.345-0.438
			c-2.107,0.183-4.213,0.357-6.32,0.529l-8.717,0.575c-2.81,0.219-5.573,0.51-8.171,1.161c-2.594,0.648-5.003,1.59-7.105,2.889
			c-2.097,1.313-3.858,3.043-5.303,5.105c-2.947,4.098-4.747,9.351-6.01,14.753c-1.376,5.405-2.188,11.059-2.904,16.745
			c-0.782,5.685-1.23,11.321-1.819,17.089c-1.04,11.547-1.912,23.703-3.352,34.703h-0.409c-0.026-11,0.062-23.199,0.563-34.854
			c0.255-5.826,0.619-11.59,1.207-17.398c0.599-5.805,1.399-11.576,2.755-17.274c1.412-5.655,3.339-11.333,6.9-16.088
			c1.775-2.359,4.003-4.395,6.572-5.873c1.547-0.897,3.202-1.566,4.9-2.095c-2.199,0.193-4.398,0.378-6.598,0.56
			c-2.865,0.211-5.84,0.362-8.611,0.591c-2.775,0.256-5.5,0.598-8.043,1.303c-2.541,0.705-4.878,1.716-6.904,3.079
			c-2.024,1.376-3.715,3.16-5.1,5.259c-2.826,4.171-4.554,9.41-5.774,14.786c-1.329,5.378-2.119,10.991-2.818,16.632
			c-0.766,5.643-1.205,11.234-1.789,16.954C90.457,114.033,89.585,126,88.146,137H88c0,0,0,0.242,0,0.243v-0.002l0,0
			c0-11.562-0.071-23.127,0.418-34.687c0.249-5.779,0.539-11.556,1.11-17.317c0.58-5.759,1.324-11.514,2.631-17.175
			c1.363-5.619,3.193-11.268,6.589-16.077c1.695-2.386,3.821-4.488,6.311-6.049c1.782-1.128,3.724-1.961,5.731-2.574
			c-2.613,0.242-5.228,0.457-7.84,0.675c-5.773,0.414-11.354,0.547-16.316,2.109c-2.459,0.789-4.705,1.864-6.631,3.315
			c-1.925,1.455-3.521,3.309-4.827,5.446c-2.694,4.239-4.302,9.468-5.488,14.8c-1.272,5.341-2.025,10.897-2.716,16.479
			c-0.741,5.584-1.177,11.234-1.75,16.893c-1.015,11.327-1.88,22.732-3.31,34.161l-0.003,0.023
			c-0.014,0.112-0.115,0.191-0.227,0.178c-0.101-0.012-0.177-0.1-0.177-0.201C61.479,125.808,61.563,114.369,62.037,102.938z
			 M178.095,141.23c-0.221,1.467-1.098,2.576-1.975,3.437c-0.899,0.867-1.889,1.549-2.901,2.152c-2.028,1.202-4.155,2.104-6.3,2.905
			c-4.295,1.585-8.716,2.674-13.126,3.631c-17.742,3.669-35.795,4.75-53.792,4.855c-17.993-0.101-36.053-1.183-53.786-4.85
			c-4.422-0.957-8.833-2.049-13.134-3.631c-2.145-0.801-4.271-1.703-6.3-2.905c-1.011-0.606-2.001-1.287-2.901-2.154
			c-0.875-0.861-1.752-1.971-1.977-3.438c-0.053-0.344-0.056-0.76-0.018-1.072c0.043-0.396,0.129-0.723,0.252-1.059
			c0.247-0.657,0.62-1.22,1.034-1.703c0.834-0.963,1.817-1.659,2.818-2.267c2.014-1.193,4.142-2.027,6.296-2.726
			c4.309-1.393,8.726-2.27,13.155-2.957c-4.339,1.108-8.651,2.358-12.766,4.018c-2.042,0.85-4.061,1.78-5.832,2.993
			c-0.876,0.606-1.695,1.291-2.28,2.062c-0.289,0.387-0.513,0.794-0.631,1.196c-0.061,0.192-0.097,0.415-0.103,0.578
			c-0.013,0.245,0.008,0.393,0.048,0.6c0.161,0.768,0.738,1.53,1.483,2.18c0.747,0.655,1.639,1.213,2.573,1.712
			c1.88,0.993,3.933,1.755,6.016,2.418c4.182,1.306,8.51,2.268,12.873,3.034c8.74,1.495,17.596,2.472,26.479,3.036
			c8.88,0.606,17.79,0.892,26.699,0.861c8.91,0.036,17.82-0.257,26.702-0.857c8.88-0.566,17.744-1.538,26.473-3.033
			c4.374-0.771,8.695-1.732,12.879-3.037c2.083-0.663,4.139-1.423,6.017-2.418c0.933-0.497,1.827-1.059,2.575-1.712
			c0.743-0.649,1.321-1.416,1.484-2.184c0.177-0.763-0.099-1.599-0.688-2.376c-0.587-0.776-1.406-1.46-2.282-2.064
			c-1.771-1.213-3.791-2.144-5.833-2.993c-4.112-1.657-8.425-2.907-12.765-4.014c4.427,0.689,8.845,1.566,13.154,2.959
			c2.153,0.7,4.282,1.532,6.295,2.727c0.999,0.606,1.982,1.303,2.816,2.268c0.413,0.481,0.785,1.043,1.033,1.699
			C178.109,139.766,178.204,140.492,178.095,141.23z"/>
	</g>
	<g>
		<g>
			<path fill="currentColor" d="M242.76,35.07h3.814v33.743l32.716-33.743h5.207l-22.446,22.667l23.4,28.682h-4.987l-21.127-25.968l-12.764,12.911
				v13.057h-3.814V35.07z"/>
			<path fill="currentColor" d="M294.617,35.07h3.814v51.348h-3.814V35.07z"/>
			<path fill="currentColor" d="M313.1,35.07h3.594l35.431,44.673V35.07h3.668v51.348h-2.861l-36.164-45.626v45.626H313.1V35.07z"/>
			<path fill="currentColor" d="M367.67,60.892v-0.146c0-13.864,10.05-26.554,25.381-26.554c8.362,0,13.645,2.493,18.779,6.749l-2.495,2.861
				c-4.032-3.521-8.728-6.162-16.503-6.162c-12.471,0-21.199,10.562-21.199,22.96v0.146c0,13.277,8.289,23.18,22.006,23.18
				c6.528,0,12.616-2.714,16.359-5.868V63.313h-17.166v-3.522h20.833v19.807c-4.621,4.107-11.811,7.702-20.174,7.702
				C377.279,87.3,367.67,75.344,367.67,60.892z"/>
			<path fill="currentColor" d="M421.287,35.07h4.256l16.137,45.698l15.038-45.847h2.933l15.041,45.847l16.138-45.698h3.962l-18.632,51.716h-3.08
				l-15.04-44.6l-15.036,44.6h-3.08L421.287,35.07z"/>
			<path fill="currentColor" d="M500.138,60.892v-0.146c0-14.011,10.342-26.554,25.894-26.554c15.554,0,25.746,12.396,25.746,26.408v0.146
				c0,14.012-10.342,26.555-25.892,26.555C510.332,87.3,500.138,74.903,500.138,60.892z M547.818,60.892v-0.146
				c0-12.69-9.242-23.108-21.933-23.108s-21.789,10.269-21.789,22.96v0.148c0,12.69,9.244,23.106,21.935,23.106
				S547.818,73.582,547.818,60.892z"/>
			<path fill="currentColor" d="M561.382,60.892v-0.146c0-14.011,10.343-26.554,25.895-26.554c15.553,0,25.746,12.396,25.746,26.408v0.146
				c0,14.012-10.342,26.555-25.894,26.555S561.382,74.903,561.382,60.892z M609.062,60.892v-0.146
				c0-12.69-9.24-23.108-21.931-23.108s-21.785,10.269-21.785,22.96v0.148c0,12.69,9.24,23.106,21.931,23.106
				S609.062,73.582,609.062,60.892z"/>
			<path fill="currentColor" d="M624.901,35.07h17.09c16.14,0,27.286,11.077,27.286,25.529v0.146c0,14.453-11.146,25.675-27.286,25.675h-17.09V35.07z
				 M628.716,38.592v44.307h13.275c14.304,0,23.327-9.755,23.327-22.007v-0.146c0-12.177-9.023-22.153-23.327-22.153H628.716z"/>
		</g>
		<g>
			<path fill="currentColor" d="M242.761,139.404v-0.147c0-14.523,10.855-26.553,25.674-26.553c9.168,0,14.67,3.374,19.951,8.214l-2.713,2.785
				c-4.476-4.325-9.609-7.553-17.311-7.553c-12.325,0-21.64,10.048-21.64,22.959v0.147c0,12.983,9.463,23.108,21.713,23.108
				c7.406,0,12.469-2.862,17.679-7.998l2.567,2.494c-5.428,5.355-11.297,8.948-20.393,8.948
				C253.616,165.813,242.761,154.149,242.761,139.404z"/>
			<path fill="currentColor" d="M298.063,113.586h3.816v23.766h32.862v-23.766h3.813v51.347h-3.813v-24.061H301.88v24.061h-3.816V113.586z"/>
			<path fill="currentColor" d="M351.901,143.586v-30h3.814v29.635c0,12.103,6.53,19.074,17.385,19.074c10.417,0,17.091-6.31,17.091-18.707v-30h3.814
				v29.562c0,14.745-8.582,22.593-21.053,22.593C360.633,165.739,351.901,157.964,351.901,143.586z"/>
			<path fill="currentColor" d="M407.353,113.586h21.566c6.31,0,11.371,1.979,14.453,5.062c2.422,2.42,3.886,5.868,3.886,9.534v0.147
				c0,8.584-6.381,13.498-15.038,14.67l16.946,21.934h-4.841l-16.359-21.272h-16.797v21.272h-3.816V113.586L407.353,113.586z
				 M428.479,140.212c8.583,0,14.962-4.328,14.962-11.737v-0.147c0-6.896-5.426-11.225-14.743-11.225h-17.529v23.107h17.311V140.212
				z"/>
			<path fill="currentColor" d="M457.01,139.404v-0.147c0-14.523,10.855-26.553,25.674-26.553c9.169,0,14.67,3.374,19.951,8.214l-2.715,2.785
				c-4.475-4.325-9.607-7.553-17.31-7.553c-12.323,0-21.64,10.048-21.64,22.959v0.147c0,12.983,9.463,23.108,21.713,23.108
				c7.407,0,12.47-2.862,17.679-7.998l2.566,2.494c-5.428,5.355-11.298,8.948-20.393,8.948
				C467.865,165.813,457.01,154.149,457.01,139.404z"/>
			<path fill="currentColor" d="M512.312,113.586h3.816v23.766h32.861v-23.766h3.814v51.347h-3.814v-24.061h-32.861v24.061h-3.816V113.586z"/>
		</g>
	</g>
</g>
</svg>
