<?xml version="1.0" encoding="utf-8"?>
<!-- Generator: Adobe Illustrator 15.1.0, SVG Export Plug-In . SVG Version: 6.00 Build 0)  -->
<!DOCTYPE svg PUBLIC "-//W3C//DTD SVG 1.1//EN" "http://www.w3.org/Graphics/SVG/1.1/DTD/svg11.dtd">
<svg version="1.1" id="Layer_1" xmlns="http://www.w3.org/2000/svg" xmlns:xlink="http://www.w3.org/1999/xlink" x="0px" y="0px"
	 width="670px" height="200px" viewBox="0 0 670 200" enable-background="new 0 0 670 200" xml:space="preserve">
<g>
	<g>
		<path d="M0,0.168v200h200v-200H0z M62.037,103.104c0.243-5.715,0.584-11.429,1.136-17.127c0.558-5.697,1.306-11.39,2.549-16.998
			c1.294-5.575,3.044-11.165,6.229-16.026c1.592-2.415,3.594-4.59,5.978-6.255c2.376-1.677,5.094-2.822,7.891-3.529
			c2.8-0.711,5.677-1.029,8.545-1.146c2.874-0.108,5.729-0.019,8.587-0.026l16.565,0.082c0.776-0.045,1.553-0.078,2.329-0.094
			c2.903-0.034,5.784,0.005,8.677,0.004l16.316,0.049c3.728-0.165,7.466-0.004,11.174-0.049l17.483,0.052v0.016
			c0.556-0.011,1.11-0.017,1.664-0.016v0.408c-4.732,0.772-9.43,1.651-13.419,3.633c-4.03,1.885-7.065,4.914-9.193,8.617
			c-2.081,3.742-3.553,7.988-4.532,12.429c-1.062,4.423-1.814,9.003-2.366,13.633c-0.665,4.619-1.094,9.302-1.526,13.998
			c-0.507,4.694-0.796,9.418-1.275,14.147c-0.825,9.466-1.664,18.973-3.1,28.504h-0.41v0.002
			c-0.032-9.536,0.026-19.076,0.308-28.612c0.299-9.533,0.782-19.076,1.964-28.563c0.637-4.734,1.456-9.458,2.689-14.088
			c1.247-4.611,2.899-9.192,5.569-13.222c1.334-2.006,2.944-3.844,4.831-5.356c1.882-1.516,4.029-2.688,6.292-3.513
			c0.443-0.161,0.892-0.3,1.341-0.438c-2.106,0.183-4.212,0.357-6.319,0.529l-8.718,0.575c-2.809,0.219-5.573,0.51-8.17,1.161
			c-2.595,0.648-5.004,1.59-7.106,2.889c-2.097,1.313-3.858,3.043-5.302,5.105c-2.947,4.098-4.748,9.351-6.01,14.753
			c-1.375,5.405-2.188,11.059-2.904,16.745c-0.782,5.685-1.229,11.442-1.818,17.211c-1.04,11.547-1.912,23.173-3.352,34.824h-0.409
			c-0.026-11.657,0.062-23.32,0.563-34.975c0.255-5.827,0.619-11.651,1.207-17.459c0.599-5.805,1.398-11.606,2.754-17.305
			c1.412-5.655,3.339-11.348,6.9-16.104c1.775-2.359,4.003-4.402,6.572-5.88c1.547-0.897,3.202-1.57,4.9-2.099
			c-2.199,0.193-4.398,0.376-6.597,0.558c-2.865,0.211-5.84,0.361-8.612,0.59c-2.775,0.256-5.5,0.597-8.043,1.303
			c-2.541,0.705-4.879,1.716-6.904,3.079c-2.025,1.376-3.716,3.16-5.1,5.259c-2.826,4.171-4.554,9.41-5.774,14.786
			c-1.329,5.378-2.119,10.991-2.818,16.632c-0.766,5.643-1.205,11.354-1.789,17.075c-1.028,11.452-1.899,22.984-3.338,34.539h-0.409
			c0,0.001,0,0.001,0,0.002v-0.002l0,0c-0.027-11.562,0.06-23.127,0.549-34.687c0.249-5.779,0.604-11.556,1.176-17.317
			c0.581-5.759,1.356-11.514,2.664-17.175c1.363-5.619,3.209-11.268,6.605-16.076c1.695-2.386,3.829-4.488,6.319-6.049
			c1.782-1.128,3.728-1.961,5.735-2.573c-2.613,0.241-5.226,0.457-7.837,0.675c-5.774,0.414-11.354,0.547-16.316,2.109
			c-2.459,0.789-4.704,1.864-6.63,3.315c-1.926,1.455-3.521,3.309-4.827,5.446c-2.693,4.239-4.302,9.468-5.488,14.8
			c-1.272,5.341-2.025,10.897-2.716,16.479c-0.741,5.584-1.177,11.234-1.75,16.893c-1.015,11.327-1.88,22.732-3.31,34.161
			l-0.003,0.023c-0.014,0.112-0.115,0.191-0.227,0.178c-0.101-0.012-0.177-0.1-0.177-0.201
			C61.479,125.976,61.564,114.537,62.037,103.104z M178.095,141.398c-0.221,1.467-1.098,2.576-1.975,3.437
			c-0.899,0.867-1.889,1.549-2.901,2.152c-2.027,1.202-4.155,2.104-6.299,2.905c-4.296,1.585-8.716,2.674-13.126,3.631
			c-17.742,3.669-35.796,4.75-53.792,4.855c-17.993-0.101-36.053-1.183-53.787-4.85c-4.422-0.957-8.833-2.049-13.134-3.631
			c-2.144-0.801-4.27-1.703-6.3-2.905c-1.011-0.606-2.001-1.287-2.901-2.154c-0.875-0.861-1.752-1.971-1.976-3.438
			c-0.053-0.344-0.056-0.76-0.019-1.072c0.044-0.396,0.129-0.723,0.252-1.059c0.247-0.657,0.621-1.22,1.034-1.703
			c0.834-0.963,1.818-1.659,2.818-2.267c2.014-1.193,4.142-2.027,6.296-2.726c4.31-1.393,8.726-2.27,13.155-2.957
			c-4.34,1.108-8.652,2.358-12.767,4.018c-2.042,0.85-4.061,1.78-5.831,2.993c-0.876,0.606-1.695,1.291-2.28,2.062
			c-0.29,0.387-0.513,0.794-0.632,1.196c-0.06,0.192-0.097,0.415-0.103,0.578c-0.012,0.245,0.008,0.393,0.048,0.6
			c0.161,0.768,0.739,1.53,1.483,2.18c0.747,0.655,1.639,1.213,2.573,1.712c1.879,0.993,3.933,1.755,6.016,2.418
			c4.182,1.306,8.51,2.268,12.874,3.034c8.74,1.495,17.595,2.472,26.479,3.036c8.88,0.606,17.79,0.892,26.699,0.861
			c8.91,0.036,17.819-0.257,26.702-0.857c8.88-0.566,17.744-1.538,26.473-3.033c4.374-0.771,8.695-1.732,12.879-3.037
			c2.083-0.663,4.139-1.423,6.017-2.418c0.933-0.497,1.826-1.059,2.575-1.712c0.743-0.649,1.321-1.416,1.484-2.184
			c0.177-0.763-0.098-1.599-0.688-2.376c-0.587-0.776-1.406-1.46-2.282-2.064c-1.771-1.213-3.792-2.144-5.833-2.993
			c-4.112-1.657-8.425-2.907-12.765-4.014c4.427,0.689,8.845,1.566,13.154,2.959c2.153,0.7,4.282,1.532,6.295,2.727
			c0.999,0.606,1.981,1.303,2.816,2.268c0.413,0.481,0.785,1.043,1.033,1.699C178.109,139.934,178.205,140.66,178.095,141.398z"/>
	</g>
	<g>
		<g enable-background="new    ">
			<path d="M234.835,35.238h3.814v33.743l32.717-33.743h5.207l-22.446,22.667l23.4,28.682h-4.987l-21.126-25.968L238.649,73.53
				v13.057h-3.814V35.238z"/>
			<path d="M286.692,35.238h3.814v51.348h-3.814V35.238z"/>
			<path d="M305.175,35.238h3.594l35.43,44.673V35.238h3.668v51.348h-2.861L308.843,40.96v45.626h-3.668V35.238z"/>
			<path d="M359.744,61.06v-0.146c0-13.864,10.051-26.554,25.381-26.554c8.363,0,13.645,2.493,18.781,6.749l-2.496,2.861
				c-4.033-3.521-8.729-6.162-16.504-6.162c-12.471,0-21.199,10.562-21.199,22.96v0.146c0,13.277,8.289,23.18,22.006,23.18
				c6.529,0,12.617-2.714,16.359-5.868V63.481h-17.166v-3.522h20.834v19.807c-4.621,4.107-11.811,7.702-20.174,7.702
				C369.354,87.468,359.744,75.512,359.744,61.06z"/>
			<path d="M413.363,35.238h4.256l16.137,45.698l15.037-45.847h2.934l15.039,45.847l16.139-45.698h3.961l-18.631,51.716h-3.08
				l-15.041-44.6l-15.035,44.6h-3.08L413.363,35.238z"/>
			<path d="M492.213,61.06v-0.146c0-14.011,10.342-26.554,25.893-26.554c15.555,0,25.748,12.396,25.748,26.408v0.146
				c0,14.012-10.344,26.555-25.893,26.555C502.408,87.468,492.213,75.071,492.213,61.06z M539.893,61.06v-0.146
				c0-12.69-9.242-23.108-21.932-23.108s-21.789,10.269-21.789,22.96v0.148c0,12.69,9.244,23.106,21.934,23.106
				C530.797,84.02,539.893,73.75,539.893,61.06z"/>
			<path d="M553.457,61.06v-0.146c0-14.011,10.342-26.554,25.895-26.554s25.746,12.396,25.746,26.408v0.146
				c0,14.012-10.342,26.555-25.895,26.555C563.652,87.468,553.457,75.071,553.457,61.06z M601.137,61.06v-0.146
				c0-12.69-9.24-23.108-21.932-23.108c-12.689,0-21.785,10.269-21.785,22.96v0.148c0,12.69,9.24,23.106,21.932,23.106
				C592.041,84.02,601.137,73.75,601.137,61.06z"/>
			<path d="M616.977,35.238h17.09c16.141,0,27.285,11.077,27.285,25.529v0.146c0,14.453-11.145,25.675-27.285,25.675h-17.09V35.238z
				 M620.791,38.76v44.307h13.275c14.303,0,23.326-9.755,23.326-22.007v-0.146c0-12.177-9.023-22.153-23.326-22.153H620.791z"/>
		</g>
		<g>
			<path d="M234.836,139.572v-0.147c0-14.523,10.854-26.553,25.674-26.553c9.168,0,14.67,3.374,19.951,8.214l-2.713,2.785
				c-4.476-4.325-9.609-7.553-17.31-7.553c-12.325,0-21.64,10.048-21.64,22.959v0.147c0,12.983,9.463,23.108,21.712,23.108
				c7.407,0,12.47-2.862,17.68-7.998l2.566,2.494c-5.428,5.355-11.297,8.948-20.392,8.948
				C245.69,165.981,234.836,154.317,234.836,139.572z"/>
			<path d="M290.139,113.754h3.816v23.766h32.864v-23.766h3.812v51.347h-3.812V141.04h-32.864v24.061h-3.816V113.754z"/>
			<path d="M343.977,143.754v-30h3.814v29.635c0,12.103,6.529,19.074,17.385,19.074c10.418,0,17.09-6.31,17.09-18.707v-30h3.814
				v29.562c0,14.745-8.58,22.593-21.053,22.593C352.707,165.907,343.977,158.132,343.977,143.754z"/>
			<path d="M399.428,113.754h21.566c6.309,0,11.371,1.979,14.453,5.062c2.422,2.42,3.887,5.868,3.887,9.534v0.147
				c0,8.584-6.383,13.498-15.039,14.67l16.945,21.934h-4.84l-16.359-21.272h-16.797v21.272h-3.816V113.754L399.428,113.754z
				 M420.555,140.38c8.584,0,14.963-4.328,14.963-11.737v-0.147c0-6.896-5.426-11.225-14.744-11.225h-17.529v23.107h17.311V140.38z"
				/>
			<path d="M449.084,139.572v-0.147c0-14.523,10.855-26.553,25.674-26.553c9.17,0,14.67,3.374,19.951,8.214l-2.713,2.785
				c-4.475-4.325-9.609-7.553-17.311-7.553c-12.324,0-21.639,10.048-21.639,22.959v0.147c0,12.983,9.463,23.108,21.711,23.108
				c7.408,0,12.471-2.862,17.68-7.998l2.566,2.494c-5.428,5.355-11.297,8.948-20.393,8.948
				C459.939,165.981,449.084,154.317,449.084,139.572z"/>
			<path d="M504.387,113.754h3.816v23.766h32.861v-23.766h3.814v51.347h-3.814V141.04h-32.861v24.061h-3.816V113.754z"/>
		</g>
	</g>
</g>
</svg>
