<?xml version="1.0" encoding="utf-8"?>
<!-- Generator: Adobe Illustrator 15.1.0, SVG Export Plug-In . SVG Version: 6.00 Build 0)  -->
<!DOCTYPE svg PUBLIC "-//W3C//DTD SVG 1.1//EN" "http://www.w3.org/Graphics/SVG/1.1/DTD/svg11.dtd">
<svg version="1.1" id="Layer_1" xmlns="http://www.w3.org/2000/svg" xmlns:xlink="http://www.w3.org/1999/xlink" x="0px" y="0px"
	 width="460px" height="400px" viewBox="0 0 460 400" enable-background="new 0 0 460 400" xml:space="preserve">
<g>
	<g>
		<g>
			<rect x="131.838" y="17.364" width="196.324" height="196.324"/>
			<g>
				<path fill="#FFFFFF" d="M283.559,144.434c4.346,0.677,8.682,1.537,12.912,2.905c2.113,0.687,4.203,1.504,6.18,2.676
					c0.98,0.595,1.945,1.278,2.764,2.225c0.406,0.474,0.771,1.024,1.014,1.669c0.244,0.652,0.338,1.365,0.23,2.09
					c-0.217,1.439-1.078,2.528-1.938,3.373c-0.883,0.851-1.855,1.52-2.848,2.113c-1.99,1.18-4.078,2.064-6.184,2.852
					c-4.217,1.555-8.555,2.625-12.885,3.564c-17.416,3.602-35.137,4.662-52.803,4.766c-17.662-0.099-35.39-1.16-52.798-4.76
					c-4.34-0.939-8.671-2.012-12.892-3.564c-2.105-0.787-4.192-1.672-6.184-2.852c-0.992-0.596-1.965-1.264-2.848-2.115
					c-0.859-0.846-1.72-1.935-1.94-3.375c-0.052-0.338-0.055-0.746-0.018-1.054c0.043-0.388,0.127-0.708,0.248-1.038
					c0.242-0.646,0.609-1.197,1.015-1.672c0.819-0.945,1.784-1.629,2.766-2.225c1.977-1.172,4.066-1.99,6.181-2.676
					c4.23-1.367,8.565-2.227,12.913-2.902c-4.26,1.088-8.493,2.314-12.532,3.943c-2.004,0.835-3.986,1.748-5.724,2.939
					c-0.86,0.594-1.664,1.266-2.238,2.025c-0.284,0.379-0.503,0.778-0.62,1.173c-0.059,0.189-0.095,0.409-0.101,0.568
					c-0.012,0.24,0.008,0.385,0.047,0.589c0.158,0.753,0.725,1.502,1.456,2.139c0.733,0.643,1.609,1.191,2.526,1.68
					c1.845,0.976,3.86,1.723,5.905,2.373c4.105,1.283,8.354,2.227,12.637,2.98c8.579,1.467,17.272,2.426,25.992,2.979
					c8.717,0.596,17.463,0.875,26.208,0.846c8.746,0.035,17.492-0.252,26.211-0.841c8.717-0.556,17.418-1.51,25.986-2.978
					c4.293-0.756,8.535-1.7,12.643-2.981c2.045-0.651,4.062-1.397,5.906-2.374c0.916-0.488,1.793-1.039,2.527-1.68
					c0.73-0.638,1.297-1.389,1.457-2.143c0.174-0.748-0.096-1.57-0.676-2.333c-0.576-0.761-1.379-1.433-2.24-2.026
					c-1.738-1.19-3.721-2.104-5.725-2.938C292.053,146.746,287.818,145.52,283.559,144.434z"/>
				<path fill="#FFFFFF" d="M270.58,152.084c-0.031-9.361,0.025-18.725,0.303-28.086c0.293-9.358,0.768-18.725,1.928-28.038
					c0.625-4.647,1.428-9.284,2.639-13.829c1.225-4.527,2.846-9.023,5.467-12.979c1.309-1.969,2.889-3.773,4.742-5.258
					c1.848-1.488,3.955-2.639,6.176-3.448c4.461-1.62,9.232-1.983,13.908-1.979v0.4c-4.646,0.758-9.256,1.621-13.172,3.566
					c-3.957,1.85-6.936,4.824-9.025,8.459c-2.043,3.673-3.488,7.841-4.449,12.201c-1.043,4.341-1.781,8.837-2.322,13.382
					c-0.652,4.534-1.074,9.131-1.498,13.741c-0.498,4.607-0.781,9.246-1.252,13.887c-0.809,9.291-1.633,18.623-3.043,27.98H270.58z"
					/>
				<path fill="#FFFFFF" d="M192.213,152.084c-0.026-11.225,0.057-22.453,0.522-33.675c0.238-5.61,0.573-11.219,1.115-16.813
					c0.548-5.592,1.282-11.18,2.502-16.685c1.27-5.472,2.988-10.96,6.115-15.732c1.563-2.37,3.528-4.505,5.868-6.14
					c2.333-1.646,5.001-2.77,7.746-3.464c2.749-0.698,5.573-1.01,8.388-1.125c2.821-0.106,5.624-0.018,8.429-0.025l16.836,0.083
					c0.109,0.001,0.199,0.09,0.197,0.2c0,0.101-0.074,0.183-0.172,0.196l-0.025,0.004c-5.613,0.776-11.227,1.217-16.84,1.686
					c-5.667,0.406-11.144,0.537-16.015,2.07c-2.414,0.775-4.618,1.83-6.509,3.254c-1.89,1.428-3.456,3.248-4.738,5.346
					c-2.644,4.162-4.223,9.294-5.387,14.528c-1.249,5.243-1.988,10.697-2.666,16.177c-0.727,5.481-1.155,11.027-1.718,16.582
					c-0.997,11.12-1.846,22.314-3.249,33.533l-0.003,0.024c-0.014,0.109-0.113,0.187-0.223,0.173
					C192.287,152.27,192.213,152.184,192.213,152.084z"/>
				<path fill="#FFFFFF" d="M217.963,152.084c-0.027-11.35,0.059-22.703,0.539-34.05c0.244-5.673,0.593-11.344,1.154-16.999
					c0.57-5.653,1.332-11.302,2.615-16.859c1.338-5.516,3.15-11.061,6.484-15.781c1.664-2.342,3.758-4.406,6.203-5.938
					c2.439-1.544,5.184-2.543,7.979-3.144c2.803-0.603,5.66-0.841,8.508-0.901c2.85-0.033,5.678,0.005,8.518,0.004l17.021,0.051v0.4
					c-5.674,0.754-11.348,1.201-17.021,1.668c-2.812,0.207-5.732,0.354-8.453,0.579c-2.725,0.251-5.398,0.586-7.896,1.279
					c-2.494,0.692-4.789,1.684-6.777,3.022c-1.988,1.351-3.648,3.102-5.006,5.162c-2.774,4.095-4.47,9.237-5.668,14.514
					c-1.304,5.279-2.08,10.789-2.766,16.326c-0.752,5.539-1.183,11.146-1.756,16.761c-1.009,11.243-1.864,22.562-3.277,33.905
					H217.963z"/>
				<path fill="#FFFFFF" d="M243.963,152.084c-0.025-11.443,0.061-22.891,0.553-34.331c0.25-5.72,0.607-11.437,1.184-17.139
					c0.588-5.698,1.373-11.393,2.705-16.987c1.385-5.551,3.277-11.139,6.773-15.807c1.742-2.316,3.93-4.322,6.451-5.772
					c2.518-1.46,5.312-2.371,8.143-2.905c5.699-1.094,11.473-0.658,17.176-0.727l17.162,0.051v0.4
					c-5.721,0.754-11.441,1.201-17.162,1.668l-8.557,0.564c-2.758,0.215-5.471,0.501-8.021,1.14
					c-2.547,0.636-4.912,1.561-6.975,2.836c-2.059,1.289-3.787,2.987-5.205,5.012c-2.893,4.022-4.66,9.179-5.9,14.482
					c-1.35,5.306-2.148,10.856-2.85,16.437c-0.768,5.58-1.207,11.232-1.785,16.894c-1.021,11.335-1.877,22.747-3.291,34.185H243.963
					z"/>
			</g>
		</g>
	</g>
	<g>
		<g enable-background="new    ">
			<path d="M20.66,249.15h3.744v33.123l32.115-33.123h5.112L39.597,271.4l22.97,28.154h-4.896l-20.738-25.49l-12.529,12.674v12.816
				H20.66V249.15z"/>
			<path d="M71.564,249.15h3.744v50.404h-3.744V249.15z"/>
			<path d="M89.707,249.15h3.528l34.779,43.853V249.15h3.601v50.404h-2.809l-35.499-44.787v44.787h-3.6V249.15z"/>
			<path d="M143.274,274.497v-0.144c0-13.609,9.865-26.066,24.914-26.066c8.209,0,13.394,2.447,18.434,6.625l-2.448,2.808
				c-3.96-3.456-8.568-6.048-16.201-6.048c-12.241,0-20.81,10.368-20.81,22.538v0.144c0,13.033,8.137,22.754,21.602,22.754
				c6.409,0,12.385-2.664,16.058-5.76v-14.474h-16.85v-3.457h20.45v19.442c-4.536,4.031-11.593,7.561-19.802,7.561
				C152.707,300.42,143.274,288.684,143.274,274.497z"/>
			<path d="M195.906,249.15h4.177l15.841,44.859l14.762-45.004h2.879l14.762,45.004l15.842-44.859h3.889l-18.289,50.766h-3.024
				l-14.763-43.78l-14.76,43.78h-3.024L195.906,249.15z"/>
			<path d="M273.307,274.497v-0.144c0-13.754,10.152-26.066,25.418-26.066s25.273,12.169,25.273,25.923v0.144
				c0,13.754-10.152,26.066-25.417,26.066C283.314,300.42,273.307,288.251,273.307,274.497z M320.11,274.497v-0.144
				c0-12.457-9.072-22.683-21.529-22.683s-21.388,10.08-21.388,22.538v0.145c0,12.457,9.074,22.682,21.531,22.682
				C311.181,297.035,320.11,286.954,320.11,274.497z"/>
			<path d="M333.426,274.497v-0.144c0-13.754,10.152-26.066,25.418-26.066c15.267,0,25.273,12.169,25.273,25.923v0.144
				c0,13.754-10.152,26.066-25.418,26.066C343.433,300.42,333.426,288.251,333.426,274.497z M380.229,274.497v-0.144
				c0-12.457-9.072-22.683-21.529-22.683s-21.385,10.08-21.385,22.538v0.145c0,12.457,9.071,22.682,21.528,22.682
				S380.229,286.954,380.229,274.497z"/>
			<path d="M395.777,249.15h16.776c15.843,0,26.785,10.873,26.785,25.06v0.144c0,14.187-10.942,25.203-26.785,25.203h-16.776V249.15
				z M399.521,252.607V296.1h13.032c14.041,0,22.898-9.576,22.898-21.603v-0.144c0-11.953-8.857-21.746-22.898-21.746H399.521z"/>
		</g>
		<g>
			<path d="M77.827,351.566v-0.144c0-14.257,10.656-26.065,25.203-26.065c9,0,14.4,3.312,19.584,8.063l-2.664,2.735
				c-4.393-4.247-9.432-7.415-16.992-7.415c-12.098,0-21.242,9.864-21.242,22.538v0.144c0,12.745,9.289,22.683,21.314,22.683
				c7.271,0,12.24-2.809,17.354-7.85l2.52,2.448c-5.328,5.257-11.09,8.784-20.018,8.784
				C88.483,377.49,77.827,366.041,77.827,351.566z"/>
			<path d="M132.114,326.223h3.746v23.329h32.258v-23.329h3.744v50.403h-3.744v-23.618H135.86v23.618h-3.746V326.223z"/>
			<path d="M184.962,355.672v-29.449h3.744v29.09c0,11.881,6.41,18.723,17.066,18.723c10.225,0,16.777-6.193,16.777-18.362v-29.45
				h3.744v29.02c0,14.474-8.424,22.178-20.666,22.178C193.532,377.418,184.962,369.785,184.962,355.672z"/>
			<path d="M239.395,326.223h21.17c6.192,0,11.162,1.943,14.186,4.969c2.377,2.375,3.816,5.76,3.816,9.359v0.145
				c0,8.425-6.265,13.25-14.762,14.4l16.635,21.53h-4.752l-16.06-20.882h-16.487v20.882h-3.746V326.223z M260.132,352.359
				c8.427,0,14.688-4.248,14.688-11.521v-0.144c0-6.77-5.327-11.019-14.473-11.019h-17.207v22.683H260.132z"/>
			<path d="M288.139,351.566v-0.144c0-14.257,10.655-26.065,25.202-26.065c9,0,14.4,3.312,19.584,8.063l-2.664,2.735
				c-4.393-4.247-9.432-7.415-16.992-7.415c-12.098,0-21.241,9.864-21.241,22.538v0.144c0,12.745,9.289,22.683,21.313,22.683
				c7.271,0,12.24-2.809,17.354-7.85l2.52,2.448c-5.328,5.257-11.09,8.784-20.018,8.784
				C298.794,377.49,288.139,366.041,288.139,351.566z"/>
			<path d="M342.425,326.223h3.746v23.329h32.258v-23.329h3.744v50.403h-3.744v-23.618h-32.258v23.618h-3.746V326.223z"/>
		</g>
	</g>
</g>
</svg>
