<?xml version="1.0" encoding="utf-8"?>
<!-- Generator: Adobe Illustrator 15.1.0, SVG Export Plug-In . SVG Version: 6.00 Build 0)  -->
<!DOCTYPE svg PUBLIC "-//W3C//DTD SVG 1.1//EN" "http://www.w3.org/Graphics/SVG/1.1/DTD/svg11.dtd">
<svg version="1.1" id="Layer_1" xmlns="http://www.w3.org/2000/svg" xmlns:xlink="http://www.w3.org/1999/xlink" x="0px" y="0px"
	 width="1600px" height="900px" viewBox="0 0 1600 900" enable-background="new 0 0 1600 900" xml:space="preserve">
<g>
	<path opacity="0.25" d="M800,521.996c39.598,0,71.996-32.398,71.996-71.996V330.007c0-39.598-32.398-71.996-71.996-71.996
		s-71.996,32.398-71.996,71.996V450C728.004,489.598,760.402,521.996,800,521.996z"/>
	<path opacity="0.25" d="M895.995,414.002V450c0,52.797-43.198,95.995-95.995,95.995S704.005,502.797,704.005,450v-35.998h-47.998
		V450c0,70.796,51.597,130.793,119.994,141.593v50.396h47.998v-50.396c68.396-12,119.993-70.797,119.993-141.593v-35.998H895.995z"
		/>
</g>
</svg>
