<?xml version="1.0" encoding="utf-8"?>
<!-- Generator: Adobe Illustrator 15.1.0, SVG Export Plug-In . SVG Version: 6.00 Build 0)  -->
<!DOCTYPE svg PUBLIC "-//W3C//DTD SVG 1.1//EN" "http://www.w3.org/Graphics/SVG/1.1/DTD/svg11.dtd">
<svg version="1.1" id="Layer_1" xmlns="http://www.w3.org/2000/svg" xmlns:xlink="http://www.w3.org/1999/xlink" x="0px" y="0px"
	 width="640px" height="640px" viewBox="0 0 640 640" enable-background="new 0 0 640 640" xml:space="preserve">
<g id="MGde9m_1_">
	<g>
		<path fill-rule="evenodd" clip-rule="evenodd" d="M116.612,323.165c-1.689-6.919,1.74-10.946,4.781-14.062
			c3.22-3.299,8.334-5.608,12.937-8.155c21.906-12.125,47.059-22.368,54.559-49.497c2.947-10.659,2.555-24.898-2.25-35.435
			c-7.938-17.408-26.949-31.72-54.839-25.592c-14.638,3.217-28.117,13.282-37.685,24.748c-2.465,2.954-8.066,9.804-11.812,8.437
			c-4.091-1.493-2.295-8.991-0.281-12.937c5.673-11.115,15.431-21.461,24.186-28.966c11.665-10,28.672-19.987,50.34-21.374
			c20.598-1.318,35.758,4.125,47.528,12.937c11.049,8.272,20.324,21.32,23.342,36.841c3.753,19.304-4.808,35.525-12.937,45.559
			c-6.221,7.68-14.965,15.119-23.623,21.654c-2.544,1.921-8.022,4.357-7.593,7.312c0.359,2.475,7.303,3.373,10.687,4.219
			c27.527,6.876,49.068,20.017,57.371,46.121c4.94,15.532,3.942,36.137-0.844,51.184c-4.771,15.004-12.188,27.646-20.811,38.247
			c-16.932,20.818-40.55,38.241-70.307,48.09c-12.954,4.288-31.254,9.095-51.465,6.75c-8.669-1.006-16.03-3.019-23.061-6.469
			c-5.337-2.619-14.351-7.677-14.062-16.029c0.198-5.716,2.274-9.095,5.062-12.655c2.179-2.783,6.303-7.593,10.968-7.312
			c6.375,0.384,11.417,6.811,15.467,9.843c13.351,9.996,37.021,17.55,59.902,11.25c25.468-7.014,41.51-26.659,49.215-51.746
			c9.14-29.76,0.81-62.057-15.749-77.339c-9.275-8.56-21.651-12.689-37.403-13.217c-11.87-0.398-23.121,2.61-32.341,5.624
			C123.128,322.1,120.115,324.433,116.612,323.165z"/>
		<path fill-rule="evenodd" clip-rule="evenodd" d="M362.969,182.55c9.17-4.47,16.818-7.146,25.873-10.124
			c1.348,0.223,2.27,0.218,3.094-0.844c2.051,0.402,5.465-0.366,7.875-1.406c10.23-0.718,20.215-1.177,27.279-1.406
			c1.871,1.266,3.885,0.04,5.904,1.125c1.438-0.022,3.418-0.203,5.062,0c0.559,0.069,1.182,0.861,1.688,0.844
			c0.756-0.025,2.77-0.162,4.781,0.281c2.363,0.521,5.078,1.524,7.875,2.25c10.391,2.697,22.412,7.813,30.934,14.624
			c5.117,4.089,9.795,10.165,13.5,16.03c-3.115,0.45-5.938-1.695-8.719-3.093c-7.34-3.691-17.461-8.137-24.186-8.437
			c-7.814-2.357-14.604-2.996-23.904-2.25c-3.35-0.504-8.195-0.413-10.688,0.844c-3.658-0.122-6.686,0.361-8.998,1.688
			c-1.059-0.497-2.73-0.085-3.938,0.844c-20.439,3.551-47.324,20.651-63.277,38.528c-0.738,2.26-2.994,3.004-3.654,5.343
			c-0.588-0.119-0.746,0.193-1.125,0.281c-12.002,15.51-23.486,35.993-26.436,62.152c-0.402,3.553-1.114,7.647-0.281,10.405
			c0.045,0.89-0.749,0.939-0.562,1.969c0.611,26.167,9.818,46.803,22.217,64.401c-26.522-9.912-38.549-41.347-43.31-68.62
			c-0.695-5.492-0.627-12.993-0.843-17.999c-0.024-0.559,0.032-0.884-0.562-0.843c0.406-22.289,6.699-53.258,23.061-67.776
			c-0.759-0.841-2.471-2.208-3.375-1.969c-6.617-5.457-13.61-12.424-13.218-22.78c0.499-13.167,10.278-21.479,18-27.841
			c1.607-0.226,3.473-1.19,5.342-1.969c1.77-0.737,3.854-1.184,5.062-2.25c3.676,0.398,7.83-0.3,10.125,0.281
			C352.105,166.998,359.426,174.284,362.969,182.55z"/>
		<path fill-rule="evenodd" clip-rule="evenodd" d="M468.148,456.885c-9.17,4.47-16.818,7.146-25.873,10.124
			c-1.348-0.223-2.268-0.217-3.094,0.844c-2.051-0.401-5.465,0.366-7.875,1.406c-10.23,0.718-20.215,1.178-27.279,1.406
			c-1.871-1.267-3.885-0.039-5.904-1.125c-1.438,0.022-3.418,0.203-5.062,0c-0.559-0.068-1.182-0.86-1.688-0.844
			c-0.756,0.025-2.77,0.162-4.781-0.281c-2.363-0.521-5.078-1.523-7.875-2.25c-10.391-2.696-22.412-7.812-30.934-14.623
			c-5.117-4.089-9.795-10.165-13.5-16.03c3.115-0.45,5.938,1.695,8.719,3.094c7.34,3.69,17.461,8.137,24.186,8.437
			c7.814,2.357,14.604,2.996,23.904,2.25c3.35,0.504,8.195,0.412,10.688-0.844c3.658,0.122,6.686-0.361,8.998-1.688
			c1.059,0.496,2.73,0.085,3.938-0.844c20.439-3.552,47.324-20.651,63.277-38.528c0.738-2.26,2.994-3.004,3.654-5.344
			c0.588,0.119,0.746-0.192,1.125-0.281c12.002-15.509,23.486-35.993,26.436-62.151c0.402-3.553,1.113-7.647,0.281-10.405
			c-0.045-0.89,0.748-0.939,0.562-1.969c-0.611-26.167-9.818-46.803-22.217-64.401c26.523,9.912,38.549,41.347,43.311,68.62
			c0.695,5.492,0.627,12.993,0.844,17.998c0.023,0.56-0.033,0.884,0.562,0.844c-0.408,22.288-6.701,53.258-23.062,67.776
			c0.76,0.841,2.473,2.208,3.375,1.969c6.617,5.457,13.611,12.424,13.219,22.779c-0.5,13.168-10.279,21.479-18,27.842
			c-1.607,0.226-3.473,1.19-5.342,1.969c-1.77,0.736-3.854,1.184-5.062,2.25c-3.676-0.398-7.83,0.3-10.125-0.281
			C479.012,472.438,471.691,465.151,468.148,456.885z"/>
		<path fill-rule="evenodd" clip-rule="evenodd" d="M551.309,263.613c4.492,9.158,7.186,16.801,10.186,25.849
			c-0.219,1.348-0.211,2.269,0.852,3.091c-0.396,2.053,0.379,5.464,1.426,7.871c0.742,10.229,1.227,20.213,1.471,27.275
			c-1.262,1.875-0.029,3.888-1.109,5.909c0.025,1.438,0.211,3.417,0.012,5.062c-0.068,0.559-0.857,1.184-0.84,1.689
			c0.027,0.756,0.168,2.771-0.27,4.782c-0.514,2.364-1.512,5.081-2.23,7.88c-2.672,10.397-7.758,22.431-14.549,30.97
			c-4.076,5.127-10.143,9.819-15.998,13.538c-0.457-3.113,1.682-5.941,3.072-8.726c3.674-7.35,8.096-17.48,8.379-24.206
			c2.338-7.819,2.961-14.612,2.191-23.91c0.496-3.351,0.393-8.196-0.869-10.685c0.113-3.659-0.377-6.685-1.709-8.995
			c0.494-1.059,0.08-2.729-0.854-3.935c-3.6-20.43-20.766-47.273-38.682-63.184c-2.262-0.734-3.012-2.988-5.352-3.643
			c0.117-0.588-0.195-0.744-0.283-1.124c-15.539-11.964-36.051-23.398-62.215-26.285c-3.555-0.393-7.65-1.095-10.406-0.256
			c-0.891,0.048-0.943-0.745-1.971-0.558c-26.166,0.676-46.779,9.933-64.348,22.373c9.848-26.546,41.254-38.649,68.516-43.475
			c5.49-0.709,12.992-0.659,17.996-0.887c0.559-0.026,0.885,0.031,0.842-0.564c22.289,0.353,53.273,6.57,67.832,22.896
			c0.84-0.761,2.201-2.476,1.961-3.379c5.439-6.63,12.391-13.64,22.748-13.272c13.168,0.467,21.504,10.227,27.885,17.931
			c0.229,1.608,1.197,3.47,1.98,5.338c0.742,1.768,1.193,3.85,2.262,5.057c-0.389,3.676,0.32,7.829-0.256,10.125
			C566.834,252.712,559.566,260.05,551.309,263.613z"/>
		<path fill-rule="evenodd" clip-rule="evenodd" d="M390.529,410.346c14.645,1.69,31.232-0.107,44.152-3.938
			c13.328-3.949,24.344-10.806,34.029-17.436c-18.318,50.351-119.869,59.767-157.207,22.498
			c-5.018,8.311-10.321,16.312-22.499,16.874c-14.781,0.683-30.054-13.364-33.466-26.998c-3.92-15.659,6.238-25.795,19.123-30.092
			c-8.697-12.996-14.296-31.112-15.467-52.59c-0.902-16.528,3.235-35.477,8.437-48.934c3.714-9.61,10.256-21.214,17.718-28.686
			c2.125-2.127,7.388-7.3,9.562-7.03c1.535,0.19,2.51,2.158,2.531,3.375c0.022,1.283-2.269,4.5-3.375,6.468
			c-8.042,14.299-13.041,28.857-13.218,49.215c-0.188,21.594,7.023,42.643,17.437,58.215
			C319.104,382.419,350.062,403.849,390.529,410.346z"/>
	</g>
</g>
</svg>
