<?xml version="1.0" encoding="utf-8"?>
<!-- Generator: Adobe Illustrator 15.1.0, SVG Export Plug-In . SVG Version: 6.00 Build 0)  -->
<!DOCTYPE svg PUBLIC "-//W3C//DTD SVG 1.1//EN" "http://www.w3.org/Graphics/SVG/1.1/DTD/svg11.dtd">
<svg version="1.1" id="Layer_1" xmlns="http://www.w3.org/2000/svg" xmlns:xlink="http://www.w3.org/1999/xlink" x="0px" y="0px"
	 width="640px" height="640px" viewBox="0 0 640 640" enable-background="new 0 0 640 640" xml:space="preserve">
<g>
	<path d="M216.188,573.445c12.072-9.123,20.974-14.541,27.257-14.541c6.284,0,15.242,5.418,27.315,14.541
		c12.072,9.124,27.281,21.955,49.269,21.955c21.988,0,37.197-12.831,49.27-21.955c12.072-9.123,20.974-14.541,27.258-14.541
		c6.283,0,15.242,5.418,27.314,14.541c12.072,9.124,27.281,21.955,49.27,21.955c21.987,0,37.363-12.831,49.436-21.955
		C534.648,564.322,543,558.904,550,558.904v-36.496c-22,0-37.363,12.773-49.436,21.898c-12.072,9.123-21.059,14.598-27.342,14.598
		s-15.284-5.475-27.356-14.598c-12.072-9.125-27.303-21.898-49.29-21.898c-21.988,0-37.207,12.773-49.279,21.898
		c-12.072,9.123-20.979,14.598-27.263,14.598c-6.284,0-15.188-5.475-27.26-14.598c-12.073-9.125-27.341-21.898-49.328-21.898
		s-37.197,12.773-49.27,21.898c-12.073,9.123-20.974,14.598-27.258,14.598s-15.41-5.475-27.482-14.598
		C127.364,535.182,112,522.408,90,522.408v36.496c7,0,15.409,5.418,27.481,14.541c12.073,9.124,27.366,21.955,49.353,21.955
		C188.823,595.4,204.114,582.569,216.188,573.445z"/>
	<path d="M473.14,485.913c-6.284,0-15.243-5.475-27.315-14.599s-27.281-21.898-49.269-21.898c-21.988,0-37.197,12.774-49.27,21.898
		s-20.974,14.599-27.258,14.599s-15.185-5.475-27.257-14.599c-12.073-9.124-27.34-21.898-49.327-21.898
		s-37.196,12.774-49.269,21.898c-12.073,9.124-20.974,14.599-27.258,14.599s-15.242-5.475-27.314-14.599
		s-27.448-21.898-49.437-21.898L90,449.417v36.496c7,0,15.409,5.417,27.481,14.541c12.073,9.124,27.366,21.954,49.353,21.954
		c21.988,0,37.238-12.83,49.311-21.954c12.072-9.124,20.995-14.541,27.278-14.541c6.284,0,15.253,5.417,27.326,14.541
		c12.072,9.124,27.286,21.954,49.273,21.954c21.989,0,37.2-12.83,49.272-21.954s20.976-14.541,27.26-14.541
		c6.283,0,15.242,5.417,27.314,14.541s27.282,21.954,49.271,21.954c21.987,0,37.363-12.83,49.436-21.954
		C534.648,491.33,543,485.913,550,485.913v-36.496c-22,0-37.363,12.773-49.436,21.897S479.423,485.913,473.14,485.913z"/>
	<path d="M191,217.84V370c0,29,39,29,39,0V222h23v210.082c17,3.042,29.629,13.295,39.805,20.984
		c6.067,4.586,11.195,8.268,16.195,10.777V390h23v73.559c4-2.502,9.484-6.043,15.369-10.492
		c10.301-7.785,22.859-18.174,39.99-21.071L387.374,222H410v148c0,30,39,30,39,0V218.752c0-32.816-25.557-64.894-63.971-64.894
		L254,153.69v-0.002C219,153.688,191,182.307,191,217.84z"/>
	<path d="M369.697,93.926c0-27.228-22.157-49.327-49.555-49.327c-27.228,0-49.383,22.099-49.383,49.327
		c0.014,27.398,22.163,49.44,49.383,49.44C347.54,143.367,369.697,121.324,369.697,93.926z"/>
</g>
</svg>
