<?xml version="1.0" encoding="utf-8"?>
<!-- Generator: Adobe Illustrator 15.1.0, SVG Export Plug-In . SVG Version: 6.00 Build 0)  -->
<!DOCTYPE svg PUBLIC "-//W3C//DTD SVG 1.1//EN" "http://www.w3.org/Graphics/SVG/1.1/DTD/svg11.dtd">
<svg version="1.1" id="Layer_1" xmlns="http://www.w3.org/2000/svg" xmlns:xlink="http://www.w3.org/1999/xlink" x="0px" y="0px"
	 width="640px" height="640px" viewBox="0 0 640 640" enable-background="new 0 0 640 640" xml:space="preserve">
<g>
	<path d="M526.129,365.744l-98.305,27.647v0.513c2.561,9.728,1.024,20.479-4.096,29.184c-5.12,9.729-13.824,16.384-24.576,19.456
		c-10.24,3.071-21.504,1.536-31.232-3.584l-56.832-31.744l5.12-9.728l56.832,31.744c7.168,4.096,14.849,4.607,22.528,2.56
		s13.824-7.168,17.92-14.337c2.048-3.584,3.072-7.68,3.584-11.775c1.536-9.729-3.072-19.968-11.776-24.576l-137.728-76.8
		c0,0-14.336-9.728-33.792-4.096c0,0,0,0-0.512,0c-3.584,0.512-151.552,43.008-157.696,44.544h-0.512l31.232,107.008l98.816-28.16
		c10.24,6.145,85.504,52.736,94.72,58.368c16.896,9.728,37.376,4.608,41.984,3.072c0.512,0,201.728-57.345,201.728-57.345
		c13.824-4.096,25.601-22.527,19.968-41.472C559.408,370.352,542.513,361.136,526.129,365.744z"/>
	<path d="M440.624,272.047c4.097-2.56,6.656-6.656,6.656-11.776c0-5.12-2.56-9.728-6.656-11.776V272.047z"/>
	<path d="M419.633,218.287c0,5.12,2.56,9.216,6.144,11.776v-23.552C422.192,209.071,419.633,213.167,419.633,218.287z"/>
	<path d="M432.944,152.239c-48.128,0-87.04,38.912-87.04,87.04s38.912,87.041,87.04,87.041s87.04-38.913,87.04-87.041
		S481.072,152.239,432.944,152.239z M463.152,214.191c-3.072,2.56-7.168,2.56-10.24,0c-2.048-2.048-7.168-6.144-12.8-8.704v27.136
		c12.288,3.072,21.504,14.336,21.504,27.648s-9.216,24.064-21.504,27.648v4.096c0,4.096-3.072,7.168-7.168,7.168
		s-7.168-3.072-7.168-7.168v-4.608c-12.288-3.584-22.016-14.848-23.552-16.384c-2.561-3.072-2.048-7.68,1.023-10.24
		c3.072-2.56,7.681-2.048,10.24,1.024c2.048,2.048,7.168,7.168,12.288,10.24v-26.624c-11.776-3.072-20.992-14.336-20.992-27.136
		c0-12.8,8.704-24.064,20.992-27.136v-4.608c0-4.096,3.072-7.168,7.168-7.168s7.168,3.072,7.168,7.168v4.096
		c12.288,3.072,22.017,12.288,23.04,13.824C466.225,207.023,466.225,211.631,463.152,214.191z"/>
</g>
</svg>
