<?xml version="1.0" encoding="utf-8"?>
<!-- Generator: Adobe Illustrator 15.1.0, SVG Export Plug-In . SVG Version: 6.00 Build 0)  -->
<!DOCTYPE svg PUBLIC "-//W3C//DTD SVG 1.1//EN" "http://www.w3.org/Graphics/SVG/1.1/DTD/svg11.dtd">
<svg version="1.1" id="Layer_1" xmlns="http://www.w3.org/2000/svg" xmlns:xlink="http://www.w3.org/1999/xlink" x="0px" y="0px"
	 width="640px" height="640px" viewBox="0 0 640 640" enable-background="new 0 0 640 640" xml:space="preserve">
<g>
	<circle cx="320" cy="181.402" r="89.241"/>
	<path d="M351.949,291.072h-63.898c-56.991,0.085-103.163,46.28-103.219,103.27v103.169c-0.028,27.768,22.459,50.301,50.227,50.329
		c0.034,0,0.068,0,0.103,0h169.677c27.769,0.028,50.302-22.459,50.33-50.227c0-0.034,0-0.068,0-0.103V394.342
		C455.111,337.352,408.94,291.157,351.949,291.072z"/>
	<path d="M441.907,317.235c6.159,2.043,12.608,3.08,19.098,3.072c33.763-0.027,61.11-27.42,61.083-61.183
		s-27.42-61.11-61.183-61.083c-29.243,0.024-54.374,20.754-59.958,49.459c-0.768,3.826-1.145,7.72-1.127,11.622
		C399.795,285.561,416.78,309.014,441.907,317.235z"/>
	<path d="M461.005,334.336c-2.253,0-4.506,0-6.707,0c10.706,18.18,16.312,38.909,16.23,60.006v103.169
		c0.016,4.299-0.413,8.589-1.28,12.8h39.219c24.94,0,45.159-20.219,45.159-45.158c0-0.018,0-0.034,0-0.052v-38.144
		C553.598,375.815,512.146,334.364,461.005,334.336z"/>
	<path d="M178.995,197.99c-33.777,0.978-60.366,29.151-59.389,62.929c0.938,32.403,26.985,58.451,59.389,59.388
		c6.489,0.008,12.938-1.029,19.098-3.072c25.126-8.222,42.111-31.675,42.086-58.112c0.019-3.902-0.359-7.796-1.126-11.622
		C233.464,218.75,208.284,197.992,178.995,197.99z"/>
	<path d="M169.472,394.342c-0.036-21.01,5.569-41.645,16.23-59.75c-2.201,0-4.454,0-6.707,0c-51.054,0-92.479,41.312-92.621,92.365
		v38.144c-0.028,24.94,20.167,45.182,45.107,45.21c0.017,0,0.034,0,0.051,0h39.22c-0.866-4.211-1.296-8.501-1.28-12.8V394.342z"/>
</g>
</svg>
