<?xml version="1.0" encoding="utf-8"?>
<!-- Generator: Adobe Illustrator 15.1.0, SVG Export Plug-In . SVG Version: 6.00 Build 0)  -->
<!DOCTYPE svg PUBLIC "-//W3C//DTD SVG 1.1//EN" "http://www.w3.org/Graphics/SVG/1.1/DTD/svg11.dtd">
<svg version="1.1" id="Layer_1" xmlns="http://www.w3.org/2000/svg" xmlns:xlink="http://www.w3.org/1999/xlink" x="0px" y="0px"
	 width="640px" height="640px" viewBox="0 0 640 640" enable-background="new 0 0 640 640" xml:space="preserve">
<path fill="currentColor" d="M320,129.708c-105.093,0-190.29,85.202-190.29,190.295c0,105.087,85.197,190.291,190.29,190.291
	c105.093,0,190.29-85.197,190.29-190.291S425.093,129.708,320,129.708z M341.924,432.008h-42.496v-42.502h42.496V432.008z
	 M391.618,298.293c-5.288,8.372-16.608,19.769-33.966,34.187c-8.97,7.465-14.546,13.459-16.706,18.002
	c-2.182,4.535-3.154,12.656-2.96,24.35h-38.559c-0.107-5.545-0.159-8.924-0.159-10.137c0-12.504,2.063-22.789,6.21-30.854
	c4.132-8.064,12.406-17.142,24.812-27.223c12.396-10.081,19.81-16.686,22.231-19.819c3.732-4.936,5.601-10.383,5.601-16.333
	c0-8.269-3.312-15.35-9.912-21.253c-6.615-5.893-15.498-8.848-26.695-8.848c-10.793,0-19.825,3.083-27.085,9.227
	c-7.26,6.154-12.247,15.534-14.971,28.134l-39.025-4.838c1.111-18.043,8.796-33.377,23.076-45.978
	c14.259-12.605,32.983-18.908,56.187-18.908c24.406,0,43.816,6.375,58.234,19.133c14.418,12.759,21.638,27.607,21.638,44.544
	C399.564,281.055,396.913,289.928,391.618,298.293z"/>
</svg>
