<?xml version="1.0" encoding="utf-8"?>
<!-- Generator: Adobe Illustrator 15.1.0, SVG Export Plug-In . SVG Version: 6.00 Build 0)  -->
<!DOCTYPE svg PUBLIC "-//W3C//DTD SVG 1.1//EN" "http://www.w3.org/Graphics/SVG/1.1/DTD/svg11.dtd">
<svg version="1.1" id="Layer_1" xmlns="http://www.w3.org/2000/svg" xmlns:xlink="http://www.w3.org/1999/xlink" x="0px" y="0px"
	 width="640px" height="640px" viewBox="0 0 640 640" enable-background="new 0 0 640 640" xml:space="preserve">
<g id="_x35_J2Q9c_1_">
</g>
<g>
	<path fill-rule="evenodd" clip-rule="evenodd" d="M199.641,464.388c28.561-13.248,72.731-19.165,113.94-14.443
		c10.425-42.753,7.21-95.986-9.629-129.988c-6.259-12.639-17.941-24.216-25.677-36.91c-8.347-13.694-15.943-25.507-22.467-38.515
		c-11.701,9.247-8.267,18.095-16.048,27.282c-43.201,51.009-118.609-25.16-69.006-69.006
		c-14.086-58.114,28.404-100.975,86.659-86.659c21.176-25.939,47.81-48.884,93.078-43.329c40.802,5.006,69.609,37.485,73.82,78.635
		c51.795,1.551,82.077,76.661,43.329,115.545c34.661,80.361-106.579,96.227-91.473,4.814c-11.726-2.229-18.309,12.092-25.677,20.862
		c-6.887,8.196-17.729,17.32-20.862,27.281c-14.747,46.879,16.703,100.391,27.281,133.197c51.621,7.258,118.605,15.813,166.898,0
		c2.559,3.646-19.3,10.489-28.887,12.839C406.642,487.63,290.944,442.544,199.641,464.388z M281.485,228.483
		c-4.349,6.35-10.989,10.409-19.257,12.838c14.609,21.765,24.459,48.291,51.354,57.772c7.044-14.352,6.186-36.609,11.233-52.958
		C306.348,244.275,293.504,236.792,281.485,228.483z M328.023,247.741c-0.864,17.16-6.228,37.125-1.604,54.562
		c14.54-11.136,25.365-25.988,40.12-36.91c-2.697-7.466-8.771-11.556-11.233-19.257C345.091,245.55,338.901,248.99,328.023,247.741z
		"/>
	<path fill-rule="evenodd" clip-rule="evenodd" d="M151.497,493.273c110.68-58.246,275.647,24.887,397.988-17.652
		c4.374,4.121-7.724,5.255-14.443,8.023C426.128,528.516,272.062,463.588,151.497,493.273z"/>
	<path fill-rule="evenodd" clip-rule="evenodd" d="M576.767,493.273c-117.071,92.432-357.05-14.343-505.509,41.725
		C199.456,450.357,432.337,554.845,576.767,493.273z"/>
	<path fill-rule="evenodd" clip-rule="evenodd" d="M588,523.765c-129.471,97.847-364.905-3.08-536,36.91
		C196.304,483.61,435.335,591.387,588,523.765z"/>
</g>
</svg>
