<?xml version="1.0" encoding="utf-8"?>
<!-- Generator: Adobe Illustrator 15.1.0, SVG Export Plug-In . SVG Version: 6.00 Build 0)  -->
<!DOCTYPE svg PUBLIC "-//W3C//DTD SVG 1.1//EN" "http://www.w3.org/Graphics/SVG/1.1/DTD/svg11.dtd">
<svg version="1.1" id="Layer_1" xmlns="http://www.w3.org/2000/svg" xmlns:xlink="http://www.w3.org/1999/xlink" x="0px" y="0px"
	 width="640px" height="640px" viewBox="0 0 640 640" enable-background="new 0 0 640 640" xml:space="preserve">
<g>
	<path d="M410.399,109.312c-0.066-0.03-0.092-0.312-0.158-0.312h-0.159c-21.336-9-44.853-14.408-69.602-14.408
		c-96.021,0-174.08,78.135-174.08,174.156s78.06,174.119,174.08,174.119S514.56,364.751,514.56,268.729
		C514.56,197.585,471.658,136.291,410.399,109.312z M290.08,123.704c15.796-5.475,32.72-8.48,50.399-8.48h0.001
		c19.848,0,38.759,3.733,56.16,10.56c10.824,18.592,10.105,37.564,10.399,51.04c0.312,14.292-5.892,22.608-13.76,35.36
		c-4.251,6.889-11.63,13.334-19.04,19.84c-7.412,6.506-15.929,12.925-18.24,24.48c-2.683,13.413-4.612,28.281-8.64,38.561
		c-2.016,5.139-4.481,8.959-7.04,11.199c-2.561,2.241-5.133,3.53-10.08,3.521c-3.693-0.005-5.693-1.034-8.32-3.36
		s-5.501-6.281-8.16-11.52c-6.477-12.764-7.441-23.38-7.52-35.04c-0.077-11.66,1.13-24.464-1.76-39.2
		c-3.117-15.887-12.751-25.951-19.681-33.76c-6.929-7.809-10.88-12.522-10.88-20.48C273.92,145.214,279.064,132.647,290.08,123.704z
		 M433,391.864v-0.159c0,0-0.293,0.113-3.539-1.279c-3.246-1.392-8.63-4.4-15.451-11.2c-0.102-0.107-0.255-0.215-0.367-0.317
		c-11.904-10.621-13.321-19.451-10.422-25.439c2.898-5.989,13.004-12.961,34.39-12.961l-0.004-0.004
		c14.007,0.891,27.771,3.295,35.536,6.08C462.791,364.211,449,379.658,433,391.864z M482.4,327.864
		c-12.647-5.765-28.404-6.895-44.16-7.841c-0.215-0.004-0.425-0.004-0.64,0c-25.906,0-45.254,8.561-52.961,24.481
		c-7.649,15.805-0.985,34.933,14.88,49.28c0.123,0.123,0.2,0.2,0.323,0.317c4.546,4.486,8.754,7.842,12.64,10.4
		c-21.465,11.386-45.968,17.92-72,17.92c-84.952,0-153.601-68.648-153.601-153.601c0-53.97,27.77-101.252,69.761-128.64
		c-2.174,8.021-3.2,16.826-3.2,26.24c0,15.448,8.83,26,16,34.08c7.17,8.081,12.96,14.368,14.88,24.16
		c2.219,11.307,1.353,22.374,1.44,35.36c0.087,12.986,1.533,27.95,9.76,44.16c3.28,6.465,7.175,12.618,12.8,17.6
		c5.623,4.982,13.359,8.463,21.92,8.48c9.26,0,17.655-3.366,23.68-8.641c6.025-5.274,9.726-12.012,12.48-19.04
		c5.509-14.056,7.322-29.893,9.76-42.081c0.338-1.693,4.393-6.863,11.521-13.12c7.127-6.257,16.257-13.749,22.88-24.48
		c7.325-11.871,17.416-25.752,16.96-46.56c-0.175-7.92,0.199-21.384-3.52-36.476c42.196,27.351,70.077,74.831,70.077,128.958
		C494.08,289.759,489.954,309.692,482.4,327.864z"/>
	<path d="M426.699,465.784c4.902-2.178,7.31-8.618,5.131-13.521c-2.178-4.9-8.654-7.377-13.555-5.199
		c-23.852,10.426-50.076,16.319-77.777,16.319c-107.574,0-194.569-86.986-194.569-194.561c0-69.894,36.77-131.114,91.997-165.44
		c3.936-2.179,6.077-7.165,4.952-11.521c-3.877-7.511-9.836-8.96-15.836-5.919c-61.043,37.942-101.72,105.803-101.72,182.88
		C125.321,384.027,216,478.178,330,483.545V499h-50.96c-5.243,0-8.33,4.229-9.92,7.472l-10.24,36.124
		c-1.79,6.109,3.555,13.404,9.92,13.404h143.36c6.365,0,11.71-7.239,9.92-13.349l-10.24-36.065c-1.243-4.24-5.5-7.586-9.92-7.586
		H351v-15.455C378,482.25,403.326,476.002,426.699,465.784z M394.08,520l4.48,15H282.4l4.479-15H394.08z"/>
</g>
</svg>
