<?xml version="1.0" encoding="utf-8"?>
<!-- Generator: Adobe Illustrator 15.1.0, SVG Export Plug-In . SVG Version: 6.00 Build 0)  -->
<!DOCTYPE svg PUBLIC "-//W3C//DTD SVG 1.1//EN" "http://www.w3.org/Graphics/SVG/1.1/DTD/svg11.dtd">
<svg version="1.1" id="Layer_1" xmlns="http://www.w3.org/2000/svg" xmlns:xlink="http://www.w3.org/1999/xlink" x="0px" y="0px"
	 width="640px" height="640px" viewBox="0 0 640 640" enable-background="new 0 0 640 640" xml:space="preserve">
<g>
	<g>
		<g>
			<g>
				<g>
					<path d="M300.256,94.965c-88.216-0.071-160.88,71.681-160.68,159.856c0.2,89.888,71.16,159.943,158.8,160.632
						c89.224,0.704,161.456-71.384,161.664-160.48C460.24,167.653,387.736,95.037,300.256,94.965z M232.72,367.757
						c-2.992,0.504-5.688,0.576-7.424-2.424c-0.792-1.36-1.44-2.801-2.28-4.439c-8.944,5.104-20.288-1.072-20.688-10.664
						c-0.056-1.369,0.64-2.785,1.04-4.168c0.48-1.673,1.624-3.425,1.392-4.977c-0.064-0.464-0.12-0.92-0.144-1.359
						c-3.088-2.24-5.232-5.697-5.4-9.769c-0.056-1.368,0.64-2.784,1.04-4.168c0.48-1.673,1.616-3.425,1.392-4.976
						c-0.648-4.608,0.032-8.288,4.216-11.097c0.592-0.399,0-3.552-0.84-4.943c-3.304-5.416-2.52-8.448,3.288-11.536
						c2.712-1.433,5.336-3.024,7.96-4.616c2.8-1.704,6.576-0.904,8.12,2.616c2.016,4.64,3.992,9.536,4.624,14.504
						c0.56,4.392,1.024,8.808,1.424,13.216c0.776,2.319,1.384,4.68,1.688,7.056c1.56,12.264,2.36,24.616,3.424,36.944
						C235.744,365.157,235.776,367.245,232.72,367.757z M284.448,183.229c-3.016,3.504-6.936,6.239-10.024,9.688
						c-2.304,2.576-3.928,5.784-5.84,8.72c-0.512,0.784-0.784,1.864-1.496,2.385c-5.592,4.151-8.272,10.104-10.44,16.424
						c-1.048,3.056-2.152,6.096-3.312,9.359c-5.408-0.336-6.288-1.056-7.624-6.848c-2.024-8.8-10.36-12.624-18.208-8.392
						c-1.064,0.567-2.2,1.008-3.336,1.416c-4.936,1.775-8.192,7.296-6.544,12.216c3.288,9.768,7.312,18.952,16.576,25.063
						c3.288,2.168,7.416,5.12,7.264,11c-9.88-4.08-19.8-6.872-26.864-15.136c-1.464-1.712-4.016-2.647-6.232-3.56
						c-0.728-0.305-1.408-0.624-2.056-0.984c2.504,2.84,4.936,5.64,7.344,8.456c1.432,1.696,0.864,2.928-1.432,3.32
						c-1.688,0.288-3.336,0.792-5.824,1.399c1.256,2.721,2.848,4.729,2.984,6.832c0.184,2.744-0.344,5.769-1.488,8.24
						c-0.408,0.88-3.512,0.648-5.384,0.656c-0.624,0-1.496-0.696-1.856-1.312c-2.4-4.071-4.712-8.191-7.016-12.319
						c-0.392-0.696-1.04-1.601-0.856-2.208c1.272-4.353-0.808-7.208-3.992-9.688c-0.408-0.32-0.776-0.848-0.872-1.336
						c-0.344-1.904-0.568-3.824-0.84-5.744c1.496,0.185,3,0.304,4.48,0.536c-0.344-0.608-0.688-1.216-1.032-1.832
						c-0.384-0.696-1.032-1.6-0.848-2.208c1.272-4.352-0.808-7.208-4-9.688c-0.4-0.32-0.776-0.849-0.864-1.337
						c-0.352-1.903-0.576-3.823-0.84-5.743c1.864,0.231,3.752,0.359,5.584,0.735c0.848,0.185,1.608,0.856,2.704,1.488
						c0.528-0.968,1.04-1.904,1.592-2.92c-1.504-3.44-3.688-6.44-6.784-9.048c-5.688-4.784-7.28-10.952-4.136-17.76
						c3.376-7.32,6.976-14.561,10.76-21.681c3.4-6.384,3.544-13.224,3.808-20.151c0.072-1.744,0.672-3.937,1.848-5.072
						c3.088-2.968,6.448-5.744,10.024-8.096c3.472-2.28,7.2-4.312,11.08-5.753c4.184-1.56,8.768-3.472,12.504,1.416
						c0.464,0.601,2.32,0.633,3.272,0.265c2.128-0.816,4.104-2.017,6.12-3.112c4.456-2.399,6-1.584,6.376,4.488
						c2.208-0.784,4.488-1.04,5.984-2.256c4.08-3.296,3.912-3.424,7.208,0.312c0.736,0.824,1.856,1.312,2.424,0.729
						c1.816-1.528,3.736-2.952,5.416-4.616c0.912-0.912,1.496-2.185,2.08-3.36c1.832-3.72,4.008-6.808,8.424-8.08
						c2.32-0.664,4.4-2.536,6.32-4.199c2.592-2.248,5.424-3.129,8.6-1.929c4.456,1.696,8.816,3.688,12.576,5.272
						c-3.28,3.408-5.92,6.576-8.992,9.248c-3.016,2.607-6.44,4.752-9.752,7c-0.864,0.592-2.232,0.56-2.952,1.256
						c-4.408,4.224-9.24,7.28-15.944,5.728c-0.24,2.528-0.392,4.112-0.584,6.145c-2.912,0-5.72-0.185-8.472,0.071
						c-1.648,0.152-3.496,0.673-4.704,1.688c-0.552,0.472-0.096,3.52,0.44,3.68c6.232,1.929,12.456,4.912,19.16,2.225
						c1.112-0.448,2.352-2.057,2.48-3.256c0.768-7.024,6.392-10.856,13.208-9.225c2.096,0.504,4.68,0.057,6.752-0.72
						c4.888-1.84,9.464-4.704,14.457-6.04c2.72-0.72,6.8-0.12,8.896,1.584c3.008,2.44,4.952,6.168,2.736,10.784
						c-1.216,2.536-1.44,5.632-1.761,8.504c-0.359,3.191-5.712,7.864-9.384,7.84c-6.168-0.04-6.023-0.04-6.312,6.096
						c-0.248,5.632-2.384,10.04-9.304,9.48c-1.992-0.16-4.04,0.152-6.056,0.208C288.696,179.677,286.504,180.845,284.448,183.229z
						 M413.272,286.453c-1.576,5.048-2.872,10.288-5.328,14.912c-2.433,4.584-6.12,8.399-6.601,14.023
						c-0.12,1.416-2.231,2.824-3.656,3.944c-4.151,3.24-9.104,5.76-12.479,9.656c-4.168,4.808-7.76,9.904-13.8,12.647
						c-1.208,0.552-2.336,2.345-2.584,3.72c-0.681,3.809-2.744,4.984-6.32,4.328c-2.248-0.416-4.504-0.912-6.76-0.992
						c-5.688-0.184-8.656,3.201-9.024,9.553c-0.151,2.624-0.432,5.488-1.632,7.72c-0.808,1.504-3.28,2.616-5.12,2.832
						c-0.96,0.112-2.487-1.96-3.216-3.344c-1.728-3.288-2.728-7.017-4.768-10.064c-3.017-4.512-2.185-9.256-2.009-14.056
						c0.353-10.064-0.279-20.168-3.063-29.744c-0.96-3.304-5.984-5.552-9.376-7.96c-3.496-2.479-7.424-4.359-10.824-6.943
						c-1.456-1.104-2.344-3.2-3.048-5.017c-2.696-6.872-5.128-13.84-7.816-20.712c-1.192-3.024-1.792-5.528,0.408-8.647
						c2.648-3.744,4.6-8.057,6.4-12.305c0.672-1.592,0.408-3.768,0.032-5.567c-1.168-5.681,1.592-9.952,5.44-13.145
						c3.584-2.96,7.992-5.023,12.232-7.056c1.672-0.8,3.888-0.488,7.312-0.816c-1.6,3.937-2.784,6.584-3.72,9.32
						c-0.288,0.848-0.328,2.344,0.191,2.832c3.801,3.6,7.656,7.176,11.792,10.384c0.896,0.688,3.353,0.353,4.496-0.416
						c5.656-3.728,13.832-2.448,17.473,3.192c1.912,2.96,4.615,4.256,7.863,3.848c8.465-1.08,11.784,0.328,14.849,8.128
						c1.336,3.4,3.328,5.393,6.439,6.656c3.496,1.4,6.952,2.984,10.553,4.048c6.544,1.92,11.487,5.752,14.848,11.616
						C413,284.029,413.568,285.478,413.272,286.453z M421.2,181.701c-1.688,0.288-3.336,0.792-5.824,1.4
						c1.256,2.72,2.848,4.728,2.984,6.831c0.184,2.744-0.345,5.769-1.488,8.24c-0.408,0.889-3.512,0.648-5.384,0.656
						c-0.624,0-1.496-0.696-1.856-1.312c-2.399-4.072-4.712-8.192-7.016-12.32c-0.393-0.696-1.04-1.601-0.856-2.208
						c1.272-4.353-0.808-7.208-3.992-9.688c-0.407-0.319-0.775-0.848-0.871-1.336c-0.345-1.903-0.568-3.824-0.841-5.744
						c1.496,0.185,3,0.305,4.48,0.536c-0.344-0.607-0.688-1.216-1.032-1.832c-0.384-0.695-1.032-1.6-0.848-2.208
						c1.271-4.352-0.809-7.208-4-9.688c-0.4-0.32-0.776-0.849-0.864-1.336c-0.352-1.904-0.576-3.824-0.84-5.744
						c1.864,0.231,3.752,0.36,5.584,0.736c0.848,0.184,1.608,0.855,2.704,1.487c1.12-2.056,2.184-4.016,3.672-6.76
						c5.12,5.824,9.936,11.208,14.616,16.704c1.439,1.696,0.863,2.928-1.424,3.32c-1.688,0.287-3.345,0.792-5.824,1.399
						c1.256,2.72,2.84,4.729,2.983,6.832c0.009,0.072,0.009,0.152,0.009,0.225c2.512,2.855,4.96,5.663,7.384,8.495
						C424.072,180.085,423.504,181.317,421.2,181.701z"/>
				</g>
			</g>
		</g>
	</g>
	<path d="M339.16,453.141c100.72-20.495,169.136-112.944,160.536-213.168c-3.521-41.088-18.152-77.647-43.664-109.92
		c-8.088-10.224-17.128-19.512-27.104-27.808l5.672-8.144c3.752-5.377,2.425-12.784-2.951-16.528
		c-5.377-3.744-12.784-2.424-16.528,2.952l-11.248,16.144c-0.576,0.824-1.016,1.704-1.36,2.608
		c-1.216,2.768-1.208,5.647-0.023,8.319c0.815,2.192,2.271,4.16,4.336,5.601c0.512,0.359,1.056,0.656,1.6,0.928
		c0.488,0.368,0.977,0.729,1.448,1.104c54.112,43.672,75.568,100.664,65.776,168.655c-7.305,50.664-33.824,90.808-76.097,119.744
		c-37.68,25.8-79.655,35.504-124.96,29.28c-10.592-1.448-20.952-4.656-31.352-7.272c-7.176-1.815-13.36,0.673-15.136,6.464
		c-0.176,0.584-0.304,1.152-0.4,1.713l-8.336,14.543c-3.256,5.688-1.288,12.944,4.4,16.208c5.688,3.257,12.944,1.288,16.208-4.399
		l6.32-11.04c4.896,1.288,9.816,2.496,14.768,3.567c8.04,1.744,10.28,2.129,10.848,6.592h-0.008c0.016,0.089,0.024,0.193,0.04,0.289
		c0.168,1.615,0.152,3.735,0.112,6.6c-0.008,0.776,0,1.544,0.008,2.312c-0.616,12.208-5.976,24-14.048,33.071
		c-7.72,8.664-16.992,15.792-26.928,21.704c-17.032,10.145-36.104,13.48-54.528,19.912c-4.2,1.464-11.752,3.12-14.712,6.52
		c-4.936,5.656-0.272,14.832,6.864,14.841c10.24,0.008,20.496,0.023,30.752,0.023h97.096h0.528h97.104
		c10.256,0,20.512-0.008,30.752-0.023c7.136-0.009,11.8-9.185,6.863-14.841c-2.96-3.399-10.512-5.048-14.712-6.52
		c-18.424-6.432-37.496-9.768-54.527-19.912c-9.944-5.912-19.217-13.04-26.929-21.704c-8.447-9.487-13.936-21.952-14.12-34.768
		c-0.056-3.433-0.071-5.8,0.225-7.505h-0.08c0.112-0.983,0.248-1.967,0.4-2.967C327.6,455.301,333.392,454.317,339.16,453.141z"/>
</g>
</svg>
